<svg width="17" height="30" viewBox="0 0 17 30" fill="none" xmlns="http://www.w3.org/2000/svg">
<path d="M2.99999 13C4.10456 13 5 13.8954 5 15C5 16.1046 4.10457 17 3.00001 17L2.99999 13ZM0.58579 16.4142C-0.19526 15.6332 -0.195264 14.3668 0.585783 13.5858L13.3137 0.857836C14.0947 0.0767855 15.361 0.0767821 16.1421 0.857829C16.9231 1.63888 16.9232 2.90521 16.1421 3.68626L4.82843 15L16.1422 26.3137C16.9232 27.0947 16.9232 28.361 16.1422 29.1421C15.3611 29.9232 14.0948 29.9232 13.3137 29.1421L0.58579 16.4142ZM3 15L3.00001 17L2.00001 17L2 15L1.99999 13L2.99999 13L3 15Z" fill="#1E1E1E"/>
</svg>
