<svg width="13" height="23" viewBox="0 0 13 23" fill="none" xmlns="http://www.w3.org/2000/svg">
<path d="M10.4473 10C9.61884 10 8.94727 10.6716 8.94727 11.5C8.94726 12.3284 9.61883 13 10.4473 13L10.4473 10ZM12.1263 12.5607C12.7121 11.9749 12.7121 11.0251 12.1263 10.4393L2.58043 0.893377C1.99465 0.307589 1.0449 0.307586 0.459113 0.893371C-0.126674 1.47916 -0.126677 2.4289 0.459108 3.01469L8.94437 11.5L0.459062 19.9853C-0.126726 20.571 -0.126729 21.5208 0.459056 22.1066C1.04484 22.6924 1.99459 22.6924 2.58038 22.1066L12.1263 12.5607ZM10.4473 11.5L10.4473 13L11.0657 13L11.0657 11.5L11.0657 10L10.4473 10L10.4473 11.5Z" fill="#1E1E1E"/>
</svg>
