<svg width="21" height="21" viewBox="0 0 21 21" fill="none" xmlns="http://www.w3.org/2000/svg">
<path fill-rule="evenodd" clip-rule="evenodd" d="M7.88105 2.6279C6.4876 2.6279 5.15121 3.18142 4.16589 4.1667C3.18057 5.15197 2.62702 6.48829 2.62702 7.88168C2.62702 9.27507 3.18057 10.6114 4.16589 11.5967C5.15121 12.5819 6.4876 13.1355 7.88105 13.1355C9.27451 13.1355 10.6109 12.5819 11.5962 11.5967C12.5815 10.6114 13.1351 9.27507 13.1351 7.88168C13.1351 6.48829 12.5815 5.15197 11.5962 4.1667C10.6109 3.18142 9.27451 2.6279 7.88105 2.6279ZM1.49033e-07 7.88168C-0.000158133 6.6414 0.292443 5.41859 0.854006 4.31271C1.41557 3.20683 2.23024 2.2491 3.23175 1.51741C4.23327 0.785729 5.39335 0.300751 6.61765 0.101923C7.84195 -0.0969058 9.09589 -0.00396988 10.2775 0.373172C11.4591 0.750313 12.535 1.40101 13.4177 2.27234C14.3004 3.14368 14.965 4.21104 15.3574 5.38762C15.7497 6.56421 15.8589 7.81679 15.6758 9.04349C15.4928 10.2702 15.0228 11.4364 14.3041 12.4472L20.6313 18.7741C20.8705 19.0218 21.0029 19.3536 21 19.698C20.997 20.0423 20.8588 20.3718 20.6153 20.6153C20.3717 20.8588 20.0423 20.997 19.6979 21C19.3535 21.0029 19.0217 20.8706 18.774 20.6313L12.4481 14.3057C11.2691 15.1441 9.88198 15.6417 8.43887 15.7441C6.99575 15.8465 5.5523 15.5497 4.26667 14.8863C2.98104 14.2228 1.90286 13.2182 1.15027 11.9827C0.397678 10.7472 -0.000281158 9.32836 1.49033e-07 7.88168Z" fill="white"/>
</svg>
