<svg width="50" height="50" viewBox="0 0 50 50" fill="none" xmlns="http://www.w3.org/2000/svg">
<path d="M7.14286 0C5.24845 0 3.43164 0.752548 2.09209 2.09209C0.752548 3.43164 0 5.24845 0 7.14286V14.2857C0 16.1801 0.752548 17.9969 2.09209 19.3365C3.43164 20.676 5.24845 21.4286 7.14286 21.4286H14.2857C16.1801 21.4286 17.9969 20.676 19.3365 19.3365C20.676 17.9969 21.4286 16.1801 21.4286 14.2857V7.14286C21.4286 5.24845 20.676 3.43164 19.3365 2.09209C17.9969 0.752548 16.1801 0 14.2857 0H7.14286ZM7.14286 28.5714C5.24845 28.5714 3.43164 29.324 2.09209 30.6635C0.752548 32.0031 0 33.8199 0 35.7143V42.8571C0 44.7515 0.752548 46.5684 2.09209 47.9079C3.43164 49.2475 5.24845 50 7.14286 50H14.2857C16.1801 50 17.9969 49.2475 19.3365 47.9079C20.676 46.5684 21.4286 44.7515 21.4286 42.8571V35.7143C21.4286 33.8199 20.676 32.0031 19.3365 30.6635C17.9969 29.324 16.1801 28.5714 14.2857 28.5714H7.14286ZM28.5714 7.14286C28.5714 5.24845 29.324 3.43164 30.6635 2.09209C32.0031 0.752548 33.8199 0 35.7143 0H42.8571C44.7515 0 46.5684 0.752548 47.9079 2.09209C49.2475 3.43164 50 5.24845 50 7.14286V14.2857C50 16.1801 49.2475 17.9969 47.9079 19.3365C46.5684 20.676 44.7515 21.4286 42.8571 21.4286H35.7143C33.8199 21.4286 32.0031 20.676 30.6635 19.3365C29.324 17.9969 28.5714 16.1801 28.5714 14.2857V7.14286ZM39.2857 28.5714C40.2329 28.5714 41.1413 28.9477 41.8111 29.6175C42.4809 30.2872 42.8571 31.1957 42.8571 32.1429V35.7143H46.4286C47.3758 35.7143 48.2842 36.0906 48.954 36.7603C49.6237 37.4301 50 38.3385 50 39.2857C50 40.2329 49.6237 41.1413 48.954 41.8111C48.2842 42.4809 47.3758 42.8571 46.4286 42.8571H42.8571V46.4286C42.8571 47.3758 42.4809 48.2842 41.8111 48.954C41.1413 49.6237 40.2329 50 39.2857 50C38.3385 50 37.4301 49.6237 36.7603 48.954C36.0906 48.2842 35.7143 47.3758 35.7143 46.4286V42.8571H32.1429C31.1957 42.8571 30.2872 42.4809 29.6175 41.8111C28.9477 41.1413 28.5714 40.2329 28.5714 39.2857C28.5714 38.3385 28.9477 37.4301 29.6175 36.7603C30.2872 36.0906 31.1957 35.7143 32.1429 35.7143H35.7143V32.1429C35.7143 31.1957 36.0906 30.2872 36.7603 29.6175C37.4301 28.9477 38.3385 28.5714 39.2857 28.5714Z" fill="#767676"/>
</svg>
