<svg width="26" height="26" viewBox="0 0 26 26" fill="none" xmlns="http://www.w3.org/2000/svg">
<path fill-rule="evenodd" clip-rule="evenodd" d="M12.853 25.8C16.2477 25.8 19.5035 24.4514 21.9039 22.0509C24.3044 19.6505 25.653 16.3947 25.653 13C25.653 9.60518 24.3044 6.34945 21.9039 3.94898C19.5035 1.54852 16.2477 0.199951 12.853 0.199951C9.45821 0.199951 6.20248 1.54852 3.80201 3.94898C1.40155 6.34945 0.0529785 9.60518 0.0529785 13C0.0529785 16.3947 1.40155 19.6505 3.80201 22.0509C6.20248 24.4514 9.45821 25.8 12.853 25.8ZM18.7842 10.9312C19.0756 10.6294 19.2369 10.2252 19.2333 9.80571C19.2296 9.3862 19.0613 8.98489 18.7647 8.68824C18.468 8.39159 18.0667 8.22332 17.6472 8.21967C17.2277 8.21603 16.8235 8.3773 16.5218 8.66875L11.253 13.9376L9.18418 11.8688C8.88241 11.5773 8.47825 11.416 8.05874 11.4197C7.63922 11.4233 7.23792 11.5916 6.94127 11.8882C6.64462 12.1849 6.47635 12.5862 6.4727 13.0057C6.46905 13.4252 6.63033 13.8294 6.92178 14.1312L10.1218 17.3312C10.4218 17.6311 10.8287 17.7996 11.253 17.7996C11.6772 17.7996 12.0841 17.6311 12.3842 17.3312L18.7842 10.9312Z" fill="#00591E"/>
</svg>
