<svg width="55" height="56" viewBox="0 0 55 56" fill="none" xmlns="http://www.w3.org/2000/svg">
<path d="M19.1667 28L24.7222 33.5556L35.8333 22.4444M52.5 28C52.5 31.283 51.8534 34.5339 50.597 37.5671C49.3406 40.6002 47.4991 43.3562 45.1777 45.6777C42.8562 47.9991 40.1002 49.8406 37.0671 51.097C34.0339 52.3534 30.783 53 27.5 53C24.217 53 20.9661 52.3534 17.9329 51.097C14.8998 49.8406 12.1438 47.9991 9.82233 45.6777C7.50087 43.3562 5.65938 40.6002 4.40301 37.5671C3.14664 34.5339 2.5 31.283 2.5 28C2.5 21.3696 5.13392 15.0107 9.82233 10.3223C14.5107 5.63392 20.8696 3 27.5 3C34.1304 3 40.4893 5.63392 45.1777 10.3223C49.8661 15.0107 52.5 21.3696 52.5 28Z" stroke="#FFFCF5" stroke-width="5" stroke-linecap="round" stroke-linejoin="round"/>
</svg>
