<svg width="56" height="56" viewBox="0 0 56 56" fill="none" xmlns="http://www.w3.org/2000/svg">
<path d="M19.6667 28L25.2222 33.5556L36.3333 22.4444M53 28C53 31.283 52.3534 34.5339 51.097 37.5671C49.8406 40.6002 47.9991 43.3562 45.6777 45.6777C43.3562 47.9991 40.6002 49.8406 37.5671 51.097C34.5339 52.3534 31.283 53 28 53C24.717 53 21.4661 52.3534 18.4329 51.097C15.3998 49.8406 12.6438 47.9991 10.3223 45.6777C8.00087 43.3562 6.15938 40.6002 4.90301 37.5671C3.64664 34.5339 3 31.283 3 28C3 21.3696 5.63392 15.0107 10.3223 10.3223C15.0107 5.63392 21.3696 3 28 3C34.6304 3 40.9893 5.63392 45.6777 10.3223C50.3661 15.0107 53 21.3696 53 28Z" stroke="#2B3537" stroke-width="5" stroke-linecap="round" stroke-linejoin="round"/>
</svg>
