<svg width="48" height="54" viewBox="0 0 48 54" fill="none" xmlns="http://www.w3.org/2000/svg">
<path d="M24 35.3333V40.8889M7.5 52H40.5C41.9587 52 43.3576 51.4147 44.3891 50.3728C45.4205 49.3309 46 47.9179 46 46.4444V29.7778C46 28.3044 45.4205 26.8913 44.3891 25.8494C43.3576 24.8075 41.9587 24.2222 40.5 24.2222H7.5C6.04131 24.2222 4.64236 24.8075 3.61091 25.8494C2.57946 26.8913 2 28.3044 2 29.7778V46.4444C2 47.9179 2.57946 49.3309 3.61091 50.3728C4.64236 51.4147 6.04131 52 7.5 52ZM35 24.2222V13.1111C35 10.1643 33.8411 7.33811 31.7782 5.25437C29.7153 3.17063 26.9174 2 24 2C21.0826 2 18.2847 3.17063 16.2218 5.25437C14.1589 7.33811 13 10.1643 13 13.1111V24.2222H35Z" stroke="black" stroke-width="4" stroke-linecap="round" stroke-linejoin="round"/>
</svg>
