<svg width="54" height="54" viewBox="0 0 54 54" fill="none" xmlns="http://www.w3.org/2000/svg">
<path d="M27 15.8889V27L35.3333 35.3333M52 27C52 30.283 51.3534 33.5339 50.097 36.5671C48.8406 39.6002 46.9991 42.3562 44.6777 44.6777C42.3562 46.9991 39.6002 48.8406 36.5671 50.097C33.5339 51.3534 30.283 52 27 52C23.717 52 20.4661 51.3534 17.4329 50.097C14.3998 48.8406 11.6438 46.9991 9.32233 44.6777C7.00087 42.3562 5.15938 39.6002 3.90301 36.5671C2.64664 33.5339 2 30.283 2 27C2 20.3696 4.63392 14.0107 9.32233 9.32233C14.0107 4.63392 20.3696 2 27 2C33.6304 2 39.9893 4.63392 44.6777 9.32233C49.3661 14.0107 52 20.3696 52 27Z" stroke="black" stroke-width="4" stroke-linecap="round" stroke-linejoin="round"/>
</svg>
