<svg width="31" height="31" viewBox="0 0 31 31" fill="none" xmlns="http://www.w3.org/2000/svg">
<path fill-rule="evenodd" clip-rule="evenodd" d="M11.8002 4.39966C9.83759 4.39966 7.95537 5.1793 6.56761 6.56707C5.17984 7.95484 4.4002 9.83706 4.4002 11.7997C4.4002 13.7623 5.17984 15.6445 6.56761 17.0323C7.95537 18.42 9.83759 19.1997 11.8002 19.1997C13.7628 19.1997 15.645 18.42 17.0328 17.0323C18.4206 15.6445 19.2002 13.7623 19.2002 11.7997C19.2002 9.83706 18.4206 7.95484 17.0328 6.56707C15.645 5.1793 13.7628 4.39966 11.8002 4.39966ZM0.700196 11.7997C0.699973 10.0527 1.11208 8.33038 1.90301 6.77273C2.69394 5.21509 3.84135 3.86612 5.25193 2.83553C6.6625 1.80495 8.29641 1.12185 10.0208 0.841801C11.7451 0.56175 13.5112 0.692651 15.1755 1.22386C16.8397 1.75506 18.355 2.67158 19.5983 3.89886C20.8415 5.12614 21.7775 6.62953 22.3301 8.28675C22.8828 9.94398 23.0365 11.7083 22.7787 13.4361C22.5209 15.1639 21.859 16.8065 20.8467 18.2303L29.7581 27.1417C30.0951 27.4906 30.2816 27.9579 30.2774 28.443C30.2732 28.9281 30.0786 29.3921 29.7356 29.7351C29.3926 30.0781 28.9286 30.2726 28.4435 30.2769C27.9585 30.2811 27.4912 30.0946 27.1422 29.7576L18.2326 20.848C16.572 22.0288 14.6184 22.7298 12.5858 22.874C10.5533 23.0182 8.52028 22.6002 6.70955 21.6657C4.89882 20.7312 3.38027 19.3163 2.32028 17.576C1.2603 15.8358 0.699799 13.8373 0.700196 11.7997Z" fill="black"/>
</svg>
