<svg width="54" height="54" viewBox="0 0 54 54" fill="none" xmlns="http://www.w3.org/2000/svg">
<path d="M52 27C52 33.6304 49.3661 39.9893 44.6777 44.6777C39.9893 49.3661 33.6304 52 27 52M52 27C52 20.3696 49.3661 14.0107 44.6777 9.32233C39.9893 4.63392 33.6304 2 27 2M52 27H2M27 52C20.3696 52 14.0107 49.3661 9.32233 44.6777C4.63392 39.9893 2 33.6304 2 27M27 52C31.6028 52 35.3333 40.8056 35.3333 27C35.3333 13.1944 31.6028 2 27 2M27 52C22.3972 52 18.6667 40.8056 18.6667 27C18.6667 13.1944 22.3972 2 27 2M27 2C20.3696 2 14.0107 4.63392 9.32233 9.32233C4.63392 14.0107 2 20.3696 2 27" stroke="black" stroke-width="4" stroke-linecap="round" stroke-linejoin="round"/>
</svg>
