<svg width="61" height="61" viewBox="0 0 61 61" fill="none" xmlns="http://www.w3.org/2000/svg">
<path fill-rule="evenodd" clip-rule="evenodd" d="M30.7139 60.8481C38.6704 60.8481 46.301 57.6874 51.9271 52.0613C57.5532 46.4353 60.7139 38.8046 60.7139 30.8481C60.7139 22.8916 57.5532 15.261 51.9271 9.63494C46.301 4.00885 38.6704 0.848145 30.7139 0.848145C22.7574 0.848145 15.1268 4.00885 9.50066 9.63494C3.87457 15.261 0.713867 22.8916 0.713867 30.8481C0.713867 38.8046 3.87457 46.4353 9.50066 52.0613C15.1268 57.6874 22.7574 60.8481 30.7139 60.8481ZM19.4639 27.0981C20.4584 27.0981 21.4123 26.7031 22.1155 25.9998C22.8188 25.2965 23.2139 24.3427 23.2139 23.3481C23.2139 22.3536 22.8188 21.3998 22.1155 20.6965C21.4123 19.9932 20.4584 19.5981 19.4639 19.5981C18.4693 19.5981 17.5155 19.9932 16.8122 20.6965C16.109 21.3998 15.7139 22.3536 15.7139 23.3481C15.7139 24.3427 16.109 25.2965 16.8122 25.9998C17.5155 26.7031 18.4693 27.0981 19.4639 27.0981ZM45.7139 23.3481C45.7139 24.3427 45.3188 25.2965 44.6155 25.9998C43.9123 26.7031 42.9584 27.0981 41.9639 27.0981C40.9693 27.0981 40.0155 26.7031 39.3122 25.9998C38.609 25.2965 38.2139 24.3427 38.2139 23.3481C38.2139 22.3536 38.609 21.3998 39.3122 20.6965C40.0155 19.9932 40.9693 19.5981 41.9639 19.5981C42.9584 19.5981 43.9123 19.9932 44.6155 20.6965C45.3188 21.3998 45.7139 22.3536 45.7139 23.3481ZM17.4539 45.3944C17.8021 45.7431 18.2157 46.0197 18.671 46.2084C19.1262 46.3971 19.6142 46.4942 20.107 46.4942C20.5998 46.4942 21.0878 46.3971 21.543 46.2084C21.9983 46.0197 22.4118 45.7431 22.7601 45.3944C24.8698 43.2853 27.7308 42.1005 30.7139 42.1005C33.697 42.1005 36.5579 43.2853 38.6676 45.3944C39.3713 46.098 40.3256 46.4934 41.3207 46.4934C42.3159 46.4934 43.2702 46.098 43.9739 45.3944C44.6775 44.6907 45.0728 43.7364 45.0728 42.7413C45.0728 41.7462 44.6775 40.7918 43.9739 40.0881C42.2327 38.3465 40.1655 36.965 37.8903 36.0224C35.6151 35.0798 33.1766 34.5946 30.7139 34.5946C28.2512 34.5946 25.8126 35.0798 23.5374 36.0224C21.2622 36.965 19.195 38.3465 17.4539 40.0881C17.1052 40.4364 16.8286 40.85 16.6399 41.3052C16.4512 41.7605 16.354 42.2485 16.354 42.7413C16.354 43.2341 16.4512 43.7221 16.6399 44.1773C16.8286 44.6325 17.1052 45.0461 17.4539 45.3944Z" fill="#960002"/>
</svg>
