<svg width="54" height="54" viewBox="0 0 54 54" fill="none" xmlns="http://www.w3.org/2000/svg">
<path d="M52 33.2639C44.0569 36.4756 35.5678 38.1216 27 38.1111C18.1583 38.1111 9.72222 36.3889 2 33.2639M38.1111 13.1111V7.55556C38.1111 6.08213 37.5258 4.66905 36.4839 3.62718C35.4421 2.58532 34.029 2 32.5556 2H21.4444C19.971 2 18.5579 2.58532 17.5161 3.62718C16.4742 4.66905 15.8889 6.08213 15.8889 7.55556V13.1111M27 29.7778H27.0278M7.55556 52H46.4444C47.9179 52 49.3309 51.4147 50.3728 50.3728C51.4147 49.3309 52 47.9179 52 46.4444V18.6667C52 17.1932 51.4147 15.7802 50.3728 14.7383C49.3309 13.6964 47.9179 13.1111 46.4444 13.1111H7.55556C6.08213 13.1111 4.66905 13.6964 3.62718 14.7383C2.58532 15.7802 2 17.1932 2 18.6667V46.4444C2 47.9179 2.58532 49.3309 3.62718 50.3728C4.66905 51.4147 6.08213 52 7.55556 52Z" stroke="black" stroke-width="4" stroke-linecap="round" stroke-linejoin="round"/>
</svg>
