<svg width="60" height="60" viewBox="0 0 60 60" fill="none" xmlns="http://www.w3.org/2000/svg">
<path fill-rule="evenodd" clip-rule="evenodd" d="M30 60C37.9565 60 45.5871 56.8393 51.2132 51.2132C56.8393 45.5871 60 37.9565 60 30C60 22.0435 56.8393 14.4129 51.2132 8.7868C45.5871 3.16071 37.9565 0 30 0C22.0435 0 14.4129 3.16071 8.7868 8.7868C3.16071 14.4129 0 22.0435 0 30C0 37.9565 3.16071 45.5871 8.7868 51.2132C14.4129 56.8393 22.0435 60 30 60ZM18.75 26.25C19.7446 26.25 20.6984 25.8549 21.4016 25.1516C22.1049 24.4484 22.5 23.4946 22.5 22.5C22.5 21.5054 22.1049 20.5516 21.4016 19.8484C20.6984 19.1451 19.7446 18.75 18.75 18.75C17.7554 18.75 16.8016 19.1451 16.0984 19.8484C15.3951 20.5516 15 21.5054 15 22.5C15 23.4946 15.3951 24.4484 16.0984 25.1516C16.8016 25.8549 17.7554 26.25 18.75 26.25ZM45 22.5C45 23.4946 44.6049 24.4484 43.9016 25.1516C43.1984 25.8549 42.2446 26.25 41.25 26.25C40.2554 26.25 39.3016 25.8549 38.5984 25.1516C37.8951 24.4484 37.5 23.4946 37.5 22.5C37.5 21.5054 37.8951 20.5516 38.5984 19.8484C39.3016 19.1451 40.2554 18.75 41.25 18.75C42.2446 18.75 43.1984 19.1451 43.9016 19.8484C44.6049 20.5516 45 21.5054 45 22.5ZM43.26 43.2562C43.6082 42.9078 43.8843 42.4943 44.0726 42.0391C44.261 41.584 44.3578 41.0962 44.3576 40.6037C44.3575 40.1111 44.2603 39.6234 44.0716 39.1684C43.883 38.7134 43.6065 38.3 43.2581 37.9519C42.9097 37.6037 42.4961 37.3276 42.041 37.1392C41.5859 36.9509 41.0981 36.8541 40.6055 36.8542C40.113 36.8544 39.6253 36.9516 39.1703 37.1403C38.7153 37.3289 38.3019 37.6053 37.9538 37.9538C35.8441 40.0628 32.9831 41.2476 30 41.2476C27.0169 41.2476 24.1559 40.0628 22.0463 37.9538C21.3431 37.2501 20.3892 36.8546 19.3945 36.8542C18.3997 36.8539 17.4455 37.2487 16.7419 37.9519C16.0382 38.655 15.6427 39.6089 15.6424 40.6037C15.642 41.5984 16.0368 42.5526 16.74 43.2562C18.4812 44.9979 20.5484 46.3794 22.8235 47.322C25.0987 48.2646 27.5373 48.7497 30 48.7497C32.4627 48.7497 34.9013 48.2646 37.1765 47.322C39.4516 46.3794 41.5188 44.9979 43.26 43.2562Z" fill="#00591E"/>
</svg>
