<svg width="54" height="54" viewBox="0 0 54 54" fill="none" xmlns="http://www.w3.org/2000/svg">
<path d="M24.2214 10.0061V47.1142C24.2206 48.2656 23.8135 49.3798 23.0718 50.2604C22.3301 51.1411 21.3014 51.7317 20.167 51.9282C19.0326 52.1248 17.8651 51.9146 16.8704 51.3348C15.8757 50.7551 15.1176 49.8428 14.7295 48.7588L8.76541 31.6743M8.76541 31.6743C6.40762 30.6717 4.46858 28.8881 3.27645 26.6202C2.08432 24.3523 1.71231 21.7422 2.22338 19.2315C2.73445 16.7208 4.09721 14.4638 6.08103 12.8424C8.06486 11.221 10.5479 10.3349 13.11 10.3339H18.199C29.5882 10.3339 39.3802 6.9059 43.6664 2V40.8916C39.3802 35.9857 29.591 32.5577 18.199 32.5577H13.11C11.6173 32.5599 10.1395 32.2575 8.76541 31.6743ZM43.6664 29.7797C45.8766 29.7797 47.9963 28.9017 49.5592 27.3388C51.122 25.7759 52 23.6561 52 21.4458C52 19.2355 51.122 17.1157 49.5592 15.5528C47.9963 13.9899 45.8766 13.1119 43.6664 13.1119" stroke="black" stroke-width="4" stroke-linecap="round" stroke-linejoin="round"/>
</svg>
