<svg width="26" height="26" viewBox="0 0 26 26" fill="none" xmlns="http://www.w3.org/2000/svg">
<path fill-rule="evenodd" clip-rule="evenodd" d="M12.853 25.8C16.2477 25.8 19.5035 24.4514 21.9039 22.0509C24.3044 19.6505 25.653 16.3947 25.653 13C25.653 9.60518 24.3044 6.34945 21.9039 3.94898C19.5035 1.54852 16.2477 0.199951 12.853 0.199951C9.45821 0.199951 6.20248 1.54852 3.80201 3.94898C1.40155 6.34945 0.0529785 9.60518 0.0529785 13C0.0529785 16.3947 1.40155 19.6505 3.80201 22.0509C6.20248 24.4514 9.45821 25.8 12.853 25.8ZM14.453 6.59995C14.453 6.1756 14.2844 5.76864 13.9843 5.46858C13.6843 5.16852 13.2773 4.99995 12.853 4.99995C12.4286 4.99995 12.0217 5.16852 11.7216 5.46858C11.4215 5.76864 11.253 6.1756 11.253 6.59995V13C11.2531 13.4243 11.4217 13.8312 11.7218 14.1312L16.2466 18.6576C16.3952 18.8062 16.5717 18.9241 16.7659 19.0046C16.9602 19.085 17.1683 19.1264 17.3786 19.1264C17.5888 19.1264 17.797 19.085 17.9912 19.0046C18.1854 18.9241 18.3619 18.8062 18.5106 18.6576C18.6592 18.5089 18.7772 18.3324 18.8576 18.1382C18.9381 17.944 18.9795 17.7358 18.9795 17.5256C18.9795 17.3153 18.9381 17.1071 18.8576 16.9129C18.7772 16.7187 18.6592 16.5422 18.5106 16.3936L14.453 12.3376V6.59995Z" fill="#FFA600"/>
</svg>
