<svg width="861" height="87" viewBox="0 0 861 87" fill="none" xmlns="http://www.w3.org/2000/svg">
<g filter="url(#filter0_d_170_799)">
<mask id="mask0_170_799" style="mask-type:alpha" maskUnits="userSpaceOnUse" x="4" y="9" width="853" height="70">
<path d="M33.6535 16.072V24.84H15.3495V34.312H29.0455V42.824H15.3495V61H4.4055V16.072H33.6535ZM50.3495 31.24C51.6295 29.2773 53.2295 27.7413 55.1495 26.632C57.0695 25.48 59.2028 24.904 61.5495 24.904V36.488H58.5415C55.8108 36.488 53.7628 37.0853 52.3975 38.28C51.0322 39.432 50.3495 41.48 50.3495 44.424V61H39.4055V25.288H50.3495V31.24ZM100.444 42.568C100.444 43.592 100.381 44.6587 100.253 45.768H75.4845C75.6552 47.9867 76.3592 49.6933 77.5965 50.888C78.8765 52.04 80.4338 52.616 82.2685 52.616C84.9992 52.616 86.8978 51.464 87.9645 49.16H99.6125C99.0152 51.5067 97.9272 53.6187 96.3485 55.496C94.8125 57.3733 92.8712 58.8453 90.5245 59.912C88.1778 60.9787 85.5538 61.512 82.6525 61.512C79.1538 61.512 76.0392 60.7653 73.3085 59.272C70.5778 57.7787 68.4445 55.6453 66.9085 52.872C65.3725 50.0987 64.6045 46.856 64.6045 43.144C64.6045 39.432 65.3512 36.1893 66.8445 33.416C68.3805 30.6427 70.5138 28.5093 73.2445 27.016C75.9752 25.5227 79.1112 24.776 82.6525 24.776C86.1085 24.776 89.1805 25.5013 91.8685 26.952C94.5565 28.4027 96.6472 30.472 98.1405 33.16C99.6765 35.848 100.444 38.984 100.444 42.568ZM89.2445 39.688C89.2445 37.8107 88.6045 36.3173 87.3245 35.208C86.0445 34.0987 84.4445 33.544 82.5245 33.544C80.6898 33.544 79.1325 34.0773 77.8525 35.144C76.6152 36.2107 75.8472 37.7253 75.5485 39.688H89.2445ZM104.042 43.208C104.042 39.6667 104.767 36.5093 106.218 33.736C107.711 30.9627 109.695 28.808 112.17 27.272C114.687 25.6933 117.418 24.904 120.362 24.904C122.623 24.904 124.65 25.3093 126.442 26.12C128.234 26.888 129.685 27.976 130.794 29.384V25.288H141.738V78.024H130.794V56.52C129.557 58.0133 128.042 59.208 126.25 60.104C124.501 61 122.495 61.448 120.234 61.448C117.333 61.448 114.645 60.68 112.17 59.144C109.695 57.608 107.711 55.4533 106.218 52.68C104.767 49.9067 104.042 46.7493 104.042 43.208ZM130.794 43.144C130.794 41.224 130.41 39.624 129.642 38.344C128.917 37.0213 127.957 36.04 126.762 35.4C125.567 34.7173 124.309 34.376 122.986 34.376C121.706 34.376 120.469 34.7173 119.274 35.4C118.079 36.04 117.098 37.0213 116.33 38.344C115.562 39.6667 115.178 41.288 115.178 43.208C115.178 45.128 115.562 46.7493 116.33 48.072C117.098 49.352 118.079 50.3333 119.274 51.016C120.469 51.656 121.706 51.976 122.986 51.976C124.266 51.976 125.503 51.656 126.698 51.016C127.935 50.3333 128.917 49.3307 129.642 48.008C130.41 46.6853 130.794 45.064 130.794 43.144ZM184.92 25.288V61H173.976V56.136C172.866 57.7147 171.352 58.9947 169.432 59.976C167.554 60.9147 165.464 61.384 163.16 61.384C160.429 61.384 158.018 60.7867 155.928 59.592C153.837 58.3547 152.216 56.584 151.064 54.28C149.912 51.976 149.336 49.2667 149.336 46.152V25.288H160.216V44.68C160.216 47.0693 160.834 48.9253 162.072 50.248C163.309 51.5707 164.973 52.232 167.064 52.232C169.197 52.232 170.882 51.5707 172.12 50.248C173.357 48.9253 173.976 47.0693 173.976 44.68V25.288H184.92ZM226.444 42.568C226.444 43.592 226.381 44.6587 226.253 45.768H201.485C201.655 47.9867 202.359 49.6933 203.597 50.888C204.877 52.04 206.434 52.616 208.269 52.616C210.999 52.616 212.898 51.464 213.965 49.16H225.613C225.015 51.5067 223.927 53.6187 222.349 55.496C220.813 57.3733 218.871 58.8453 216.525 59.912C214.178 60.9787 211.554 61.512 208.653 61.512C205.154 61.512 202.039 60.7653 199.309 59.272C196.578 57.7787 194.445 55.6453 192.909 52.872C191.373 50.0987 190.605 46.856 190.605 43.144C190.605 39.432 191.351 36.1893 192.845 33.416C194.381 30.6427 196.514 28.5093 199.245 27.016C201.975 25.5227 205.111 24.776 208.653 24.776C212.109 24.776 215.181 25.5013 217.869 26.952C220.557 28.4027 222.647 30.472 224.141 33.16C225.677 35.848 226.444 38.984 226.444 42.568ZM215.245 39.688C215.245 37.8107 214.605 36.3173 213.325 35.208C212.045 34.0987 210.445 33.544 208.525 33.544C206.69 33.544 205.133 34.0773 203.853 35.144C202.615 36.2107 201.847 37.7253 201.549 39.688H215.245ZM253.978 24.904C258.159 24.904 261.487 26.2693 263.962 29C266.479 31.688 267.738 35.4 267.738 40.136V61H256.858V41.608C256.858 39.2187 256.239 37.3627 255.002 36.04C253.765 34.7173 252.101 34.056 250.01 34.056C247.919 34.056 246.255 34.7173 245.018 36.04C243.781 37.3627 243.162 39.2187 243.162 41.608V61H232.218V25.288H243.162V30.024C244.271 28.4453 245.765 27.208 247.642 26.312C249.519 25.3733 251.631 24.904 253.978 24.904ZM286.287 13.64V61H275.343V13.64H286.287ZM330.698 25.288L308.298 77.96H296.522L304.714 59.784L290.186 25.288H302.41L310.666 47.624L318.858 25.288H330.698ZM376.186 53.064H359.418L356.73 61H345.274L361.53 16.072H374.202L390.458 61H378.874L376.186 53.064ZM373.37 44.616L367.802 28.168L362.298 44.616H373.37ZM409.934 61.512C406.819 61.512 404.046 60.9787 401.614 59.912C399.182 58.8453 397.262 57.3947 395.854 55.56C394.446 53.6827 393.656 51.592 393.486 49.288H404.302C404.43 50.5253 405.006 51.528 406.03 52.296C407.054 53.064 408.312 53.448 409.806 53.448C411.171 53.448 412.216 53.192 412.942 52.68C413.71 52.1253 414.094 51.4213 414.094 50.568C414.094 49.544 413.56 48.7973 412.494 48.328C411.427 47.816 409.699 47.2613 407.31 46.664C404.75 46.0667 402.616 45.448 400.91 44.808C399.203 44.1253 397.731 43.08 396.494 41.672C395.256 40.2213 394.638 38.28 394.638 35.848C394.638 33.8 395.192 31.944 396.302 30.28C397.454 28.5733 399.118 27.2293 401.294 26.248C403.512 25.2667 406.136 24.776 409.166 24.776C413.646 24.776 417.166 25.8853 419.726 28.104C422.328 30.3227 423.822 33.2667 424.206 36.936H414.094C413.923 35.6987 413.368 34.7173 412.43 33.992C411.534 33.2667 410.339 32.904 408.846 32.904C407.566 32.904 406.584 33.16 405.902 33.672C405.219 34.1413 404.878 34.8027 404.878 35.656C404.878 36.68 405.411 37.448 406.478 37.96C407.587 38.472 409.294 38.984 411.598 39.496C414.243 40.1787 416.398 40.8613 418.062 41.544C419.726 42.184 421.176 43.2507 422.414 44.744C423.694 46.1947 424.355 48.1573 424.398 50.632C424.398 52.7227 423.8 54.6 422.606 56.264C421.454 57.8853 419.768 59.1653 417.55 60.104C415.374 61.0427 412.835 61.512 409.934 61.512ZM452.917 61L442.037 46.024V61H431.093V13.64H442.037V39.816L452.853 25.288H466.357L451.509 43.208L466.485 61H452.917ZM504.319 42.568C504.319 43.592 504.256 44.6587 504.128 45.768H479.36C479.53 47.9867 480.234 49.6933 481.472 50.888C482.752 52.04 484.309 52.616 486.144 52.616C488.874 52.616 490.773 51.464 491.84 49.16H503.488C502.89 51.5067 501.802 53.6187 500.224 55.496C498.688 57.3733 496.746 58.8453 494.4 59.912C492.053 60.9787 489.429 61.512 486.528 61.512C483.029 61.512 479.914 60.7653 477.184 59.272C474.453 57.7787 472.32 55.6453 470.784 52.872C469.248 50.0987 468.48 46.856 468.48 43.144C468.48 39.432 469.226 36.1893 470.72 33.416C472.256 30.6427 474.389 28.5093 477.12 27.016C479.85 25.5227 482.986 24.776 486.528 24.776C489.984 24.776 493.056 25.5013 495.744 26.952C498.432 28.4027 500.522 30.472 502.016 33.16C503.552 35.848 504.319 38.984 504.319 42.568ZM493.12 39.688C493.12 37.8107 492.48 36.3173 491.2 35.208C489.92 34.0987 488.32 33.544 486.4 33.544C484.565 33.544 483.008 34.0773 481.728 35.144C480.49 36.2107 479.722 37.7253 479.424 39.688H493.12ZM507.917 43.08C507.917 39.4107 508.6 36.1893 509.965 33.416C511.373 30.6427 513.272 28.5093 515.661 27.016C518.05 25.5227 520.717 24.776 523.661 24.776C526.008 24.776 528.141 25.2667 530.061 26.248C532.024 27.2293 533.56 28.552 534.669 30.216V13.64H545.613V61H534.669V55.88C533.645 57.5867 532.173 58.952 530.253 59.976C528.376 61 526.178 61.512 523.661 61.512C520.717 61.512 518.05 60.7653 515.661 59.272C513.272 57.736 511.373 55.5813 509.965 52.808C508.6 49.992 507.917 46.7493 507.917 43.08ZM534.669 43.144C534.669 40.4133 533.901 38.2587 532.365 36.68C530.872 35.1013 529.037 34.312 526.861 34.312C524.685 34.312 522.829 35.1013 521.293 36.68C519.8 38.216 519.053 40.3493 519.053 43.08C519.053 45.8107 519.8 47.9867 521.293 49.608C522.829 51.1867 524.685 51.976 526.861 51.976C529.037 51.976 530.872 51.1867 532.365 49.608C533.901 48.0293 534.669 45.8747 534.669 43.144ZM599.093 68.68L593.333 60.936C591.626 61.2773 589.962 61.448 588.341 61.448C584.117 61.448 580.234 60.4667 576.693 58.504C573.194 56.5413 570.4 53.8107 568.309 50.312C566.261 46.7707 565.237 42.8027 565.237 38.408C565.237 34.0133 566.261 30.0667 568.309 26.568C570.4 23.0693 573.194 20.3387 576.693 18.376C580.234 16.4133 584.117 15.432 588.341 15.432C592.565 15.432 596.426 16.4133 599.925 18.376C603.466 20.3387 606.24 23.0693 608.245 26.568C610.293 30.0667 611.317 34.0133 611.317 38.408C611.317 42.248 610.528 45.768 608.949 48.968C607.413 52.1253 605.258 54.7493 602.485 56.84L612.341 68.68H599.093ZM576.437 38.408C576.437 42.376 577.504 45.5547 579.637 47.944C581.813 50.2907 584.714 51.464 588.341 51.464C591.925 51.464 594.784 50.2693 596.917 47.88C599.093 45.4907 600.181 42.3333 600.181 38.408C600.181 34.44 599.093 31.2827 596.917 28.936C594.784 26.5467 591.925 25.352 588.341 25.352C584.714 25.352 581.813 26.5253 579.637 28.872C577.504 31.2187 576.437 34.3973 576.437 38.408ZM652.795 25.288V61H641.851V56.136C640.741 57.7147 639.227 58.9947 637.307 59.976C635.429 60.9147 633.339 61.384 631.035 61.384C628.304 61.384 625.893 60.7867 623.803 59.592C621.712 58.3547 620.091 56.584 618.939 54.28C617.787 51.976 617.211 49.2667 617.211 46.152V25.288H628.091V44.68C628.091 47.0693 628.709 48.9253 629.947 50.248C631.184 51.5707 632.848 52.232 634.939 52.232C637.072 52.232 638.757 51.5707 639.995 50.248C641.232 48.9253 641.851 47.0693 641.851 44.68V25.288H652.795ZM694.319 42.568C694.319 43.592 694.256 44.6587 694.128 45.768H669.36C669.53 47.9867 670.234 49.6933 671.472 50.888C672.752 52.04 674.309 52.616 676.144 52.616C678.874 52.616 680.773 51.464 681.84 49.16H693.488C692.89 51.5067 691.802 53.6187 690.224 55.496C688.688 57.3733 686.746 58.8453 684.4 59.912C682.053 60.9787 679.429 61.512 676.528 61.512C673.029 61.512 669.914 60.7653 667.184 59.272C664.453 57.7787 662.32 55.6453 660.784 52.872C659.248 50.0987 658.48 46.856 658.48 43.144C658.48 39.432 659.226 36.1893 660.72 33.416C662.256 30.6427 664.389 28.5093 667.12 27.016C669.85 25.5227 672.986 24.776 676.528 24.776C679.984 24.776 683.056 25.5013 685.744 26.952C688.432 28.4027 690.522 30.472 692.016 33.16C693.552 35.848 694.319 38.984 694.319 42.568ZM683.12 39.688C683.12 37.8107 682.48 36.3173 681.2 35.208C679.92 34.0987 678.32 33.544 676.4 33.544C674.565 33.544 673.008 34.0773 671.728 35.144C670.49 36.2107 669.722 37.7253 669.424 39.688H683.12ZM714.621 61.512C711.506 61.512 708.733 60.9787 706.301 59.912C703.869 58.8453 701.949 57.3947 700.541 55.56C699.133 53.6827 698.344 51.592 698.173 49.288H708.989C709.117 50.5253 709.693 51.528 710.717 52.296C711.741 53.064 713 53.448 714.493 53.448C715.858 53.448 716.904 53.192 717.629 52.68C718.397 52.1253 718.781 51.4213 718.781 50.568C718.781 49.544 718.248 48.7973 717.181 48.328C716.114 47.816 714.386 47.2613 711.997 46.664C709.437 46.0667 707.304 45.448 705.597 44.808C703.89 44.1253 702.418 43.08 701.181 41.672C699.944 40.2213 699.325 38.28 699.325 35.848C699.325 33.8 699.88 31.944 700.989 30.28C702.141 28.5733 703.805 27.2293 705.981 26.248C708.2 25.2667 710.824 24.776 713.853 24.776C718.333 24.776 721.853 25.8853 724.413 28.104C727.016 30.3227 728.509 33.2667 728.893 36.936H718.781C718.61 35.6987 718.056 34.7173 717.117 33.992C716.221 33.2667 715.026 32.904 713.533 32.904C712.253 32.904 711.272 33.16 710.589 33.672C709.906 34.1413 709.565 34.8027 709.565 35.656C709.565 36.68 710.098 37.448 711.165 37.96C712.274 38.472 713.981 38.984 716.285 39.496C718.93 40.1787 721.085 40.8613 722.749 41.544C724.413 42.184 725.864 43.2507 727.101 44.744C728.381 46.1947 729.042 48.1573 729.085 50.632C729.085 52.7227 728.488 54.6 727.293 56.264C726.141 57.8853 724.456 59.1653 722.237 60.104C720.061 61.0427 717.522 61.512 714.621 61.512ZM755.685 51.72V61H750.117C746.149 61 743.055 60.04 740.837 58.12C738.618 56.1573 737.509 52.9787 737.509 48.584V34.376H733.157V25.288H737.509V16.584H748.453V25.288H755.621V34.376H748.453V48.712C748.453 49.7787 748.709 50.5467 749.221 51.016C749.733 51.4853 750.586 51.72 751.781 51.72H755.685ZM767.285 21.576C765.365 21.576 763.786 21.0213 762.549 19.912C761.354 18.76 760.757 17.352 760.757 15.688C760.757 13.9813 761.354 12.5733 762.549 11.464C763.786 10.312 765.365 9.736 767.285 9.736C769.162 9.736 770.698 10.312 771.893 11.464C773.13 12.5733 773.749 13.9813 773.749 15.688C773.749 17.352 773.13 18.76 771.893 19.912C770.698 21.0213 769.162 21.576 767.285 21.576ZM772.725 25.288V61H761.781V25.288H772.725ZM796.912 61.512C793.413 61.512 790.256 60.7653 787.44 59.272C784.666 57.7787 782.469 55.6453 780.848 52.872C779.269 50.0987 778.48 46.856 778.48 43.144C778.48 39.4747 779.29 36.2533 780.911 33.48C782.533 30.664 784.752 28.5093 787.568 27.016C790.384 25.5227 793.541 24.776 797.04 24.776C800.538 24.776 803.696 25.5227 806.512 27.016C809.328 28.5093 811.546 30.664 813.168 33.48C814.789 36.2533 815.6 39.4747 815.6 43.144C815.6 46.8133 814.768 50.056 813.104 52.872C811.482 55.6453 809.242 57.7787 806.384 59.272C803.568 60.7653 800.41 61.512 796.912 61.512ZM796.912 52.04C799.002 52.04 800.773 51.272 802.224 49.736C803.717 48.2 804.464 46.0027 804.464 43.144C804.464 40.2853 803.738 38.088 802.288 36.552C800.88 35.016 799.13 34.248 797.04 34.248C794.906 34.248 793.136 35.016 791.728 36.552C790.32 38.0453 789.616 40.2427 789.616 43.144C789.616 46.0027 790.298 48.2 791.664 49.736C793.072 51.272 794.821 52.04 796.912 52.04ZM843.166 24.904C847.347 24.904 850.675 26.2693 853.15 29C855.667 31.688 856.926 35.4 856.926 40.136V61H846.046V41.608C846.046 39.2187 845.427 37.3627 844.19 36.04C842.952 34.7173 841.288 34.056 839.198 34.056C837.107 34.056 835.443 34.7173 834.206 36.04C832.968 37.3627 832.35 39.2187 832.35 41.608V61H821.406V25.288H832.35V30.024C833.459 28.4453 834.952 27.208 836.83 26.312C838.707 25.3733 840.819 24.904 843.166 24.904Z" fill="#1E1E1E"/>
</mask>
<g mask="url(#mask0_170_799)">
<rect x="-1" y="-93" width="907" height="317" fill="url(#paint0_linear_170_799)"/>
</g>
</g>
<defs>
<filter id="filter0_d_170_799" x="0.405518" y="9.73599" width="860.52" height="76.288" filterUnits="userSpaceOnUse" color-interpolation-filters="sRGB">
<feFlood flood-opacity="0" result="BackgroundImageFix"/>
<feColorMatrix in="SourceAlpha" type="matrix" values="0 0 0 0 0 0 0 0 0 0 0 0 0 0 0 0 0 0 127 0" result="hardAlpha"/>
<feOffset dy="4"/>
<feGaussianBlur stdDeviation="2"/>
<feComposite in2="hardAlpha" operator="out"/>
<feColorMatrix type="matrix" values="0 0 0 0 0 0 0 0 0 0 0 0 0 0 0 0 0 0 0.25 0"/>
<feBlend mode="normal" in2="BackgroundImageFix" result="effect1_dropShadow_170_799"/>
<feBlend mode="normal" in="SourceGraphic" in2="effect1_dropShadow_170_799" result="shape"/>
</filter>
<linearGradient id="paint0_linear_170_799" x1="452.5" y1="-93" x2="452.5" y2="224" gradientUnits="userSpaceOnUse">
<stop offset="0.375" stop-color="white"/>
<stop offset="1"/>
</linearGradient>
</defs>
</svg>
