<svg width="835" height="156" viewBox="0 0 835 156" fill="none" xmlns="http://www.w3.org/2000/svg">
<mask id="mask0_454_1654" style="mask-type:alpha" maskUnits="userSpaceOnUse" x="4" y="9" width="827" height="147">
<path d="M150.167 16.072L138.455 61H125.207L118.039 31.432L110.615 61H97.367L85.975 16.072H97.687L104.151 48.776L112.151 16.072H124.183L131.863 48.776L138.391 16.072H150.167ZM189.319 42.568C189.319 43.592 189.256 44.6587 189.128 45.768H164.36C164.53 47.9867 165.234 49.6933 166.472 50.888C167.752 52.04 169.309 52.616 171.144 52.616C173.874 52.616 175.773 51.464 176.84 49.16H188.488C187.89 51.5067 186.802 53.6187 185.224 55.496C183.688 57.3733 181.746 58.8453 179.4 59.912C177.053 60.9787 174.429 61.512 171.528 61.512C168.029 61.512 164.914 60.7653 162.184 59.272C159.453 57.7787 157.32 55.6453 155.784 52.872C154.248 50.0987 153.48 46.856 153.48 43.144C153.48 39.432 154.226 36.1893 155.72 33.416C157.256 30.6427 159.389 28.5093 162.12 27.016C164.85 25.5227 167.986 24.776 171.528 24.776C174.984 24.776 178.056 25.5013 180.744 26.952C183.432 28.4027 185.522 30.472 187.016 33.16C188.552 35.848 189.319 38.984 189.319 42.568ZM178.12 39.688C178.12 37.8107 177.48 36.3173 176.2 35.208C174.92 34.0987 173.32 33.544 171.4 33.544C169.565 33.544 168.008 34.0773 166.728 35.144C165.49 36.2107 164.722 37.7253 164.424 39.688H178.12ZM206.037 30.344C207.061 28.68 208.533 27.336 210.453 26.312C212.373 25.288 214.57 24.776 217.045 24.776C219.989 24.776 222.656 25.5227 225.045 27.016C227.434 28.5093 229.312 30.6427 230.677 33.416C232.085 36.1893 232.789 39.4107 232.789 43.08C232.789 46.7493 232.085 49.992 230.677 52.808C229.312 55.5813 227.434 57.736 225.045 59.272C222.656 60.7653 219.989 61.512 217.045 61.512C214.528 61.512 212.33 61.0213 210.453 60.04C208.576 59.016 207.104 57.672 206.037 56.008V61H195.093V13.64H206.037V30.344ZM221.653 43.08C221.653 40.3493 220.885 38.216 219.349 36.68C217.856 35.1013 216 34.312 213.781 34.312C211.605 34.312 209.749 35.1013 208.213 36.68C206.72 38.2587 205.973 40.4133 205.973 43.144C205.973 45.8747 206.72 48.0293 208.213 49.608C209.749 51.1867 211.605 51.976 213.781 51.976C215.957 51.976 217.813 51.1867 219.349 49.608C220.885 47.9867 221.653 45.8107 221.653 43.08ZM253.059 61.512C249.944 61.512 247.171 60.9787 244.739 59.912C242.307 58.8453 240.387 57.3947 238.979 55.56C237.571 53.6827 236.781 51.592 236.611 49.288H247.427C247.555 50.5253 248.131 51.528 249.155 52.296C250.179 53.064 251.437 53.448 252.931 53.448C254.296 53.448 255.341 53.192 256.067 52.68C256.835 52.1253 257.219 51.4213 257.219 50.568C257.219 49.544 256.685 48.7973 255.619 48.328C254.552 47.816 252.824 47.2613 250.435 46.664C247.875 46.0667 245.741 45.448 244.035 44.808C242.328 44.1253 240.856 43.08 239.619 41.672C238.381 40.2213 237.763 38.28 237.763 35.848C237.763 33.8 238.317 31.944 239.427 30.28C240.579 28.5733 242.243 27.2293 244.419 26.248C246.637 25.2667 249.261 24.776 252.291 24.776C256.771 24.776 260.291 25.8853 262.851 28.104C265.453 30.3227 266.947 33.2667 267.331 36.936H257.219C257.048 35.6987 256.493 34.7173 255.555 33.992C254.659 33.2667 253.464 32.904 251.971 32.904C250.691 32.904 249.709 33.16 249.027 33.672C248.344 34.1413 248.003 34.8027 248.003 35.656C248.003 36.68 248.536 37.448 249.603 37.96C250.712 38.472 252.419 38.984 254.723 39.496C257.368 40.1787 259.523 40.8613 261.187 41.544C262.851 42.184 264.301 43.2507 265.539 44.744C266.819 46.1947 267.48 48.1573 267.523 50.632C267.523 52.7227 266.925 54.6 265.731 56.264C264.579 57.8853 262.893 59.1653 260.675 60.104C258.499 61.0427 255.96 61.512 253.059 61.512ZM279.722 21.576C277.802 21.576 276.223 21.0213 274.986 19.912C273.791 18.76 273.194 17.352 273.194 15.688C273.194 13.9813 273.791 12.5733 274.986 11.464C276.223 10.312 277.802 9.736 279.722 9.736C281.599 9.736 283.135 10.312 284.33 11.464C285.567 12.5733 286.186 13.9813 286.186 15.688C286.186 17.352 285.567 18.76 284.33 19.912C283.135 21.0213 281.599 21.576 279.722 21.576ZM285.162 25.288V61H274.218V25.288H285.162ZM312.997 51.72V61H307.429C303.461 61 300.368 60.04 298.149 58.12C295.93 56.1573 294.821 52.9787 294.821 48.584V34.376H290.469V25.288H294.821V16.584H305.765V25.288H312.933V34.376H305.765V48.712C305.765 49.7787 306.021 50.5467 306.533 51.016C307.045 51.4853 307.898 51.72 309.093 51.72H312.997ZM352.757 42.568C352.757 43.592 352.693 44.6587 352.565 45.768H327.797C327.968 47.9867 328.672 49.6933 329.909 50.888C331.189 52.04 332.746 52.616 334.581 52.616C337.312 52.616 339.21 51.464 340.277 49.16H351.925C351.328 51.5067 350.24 53.6187 348.661 55.496C347.125 57.3733 345.184 58.8453 342.837 59.912C340.49 60.9787 337.866 61.512 334.965 61.512C331.466 61.512 328.352 60.7653 325.621 59.272C322.89 57.7787 320.757 55.6453 319.221 52.872C317.685 50.0987 316.917 46.856 316.917 43.144C316.917 39.432 317.664 36.1893 319.157 33.416C320.693 30.6427 322.826 28.5093 325.557 27.016C328.288 25.5227 331.424 24.776 334.965 24.776C338.421 24.776 341.493 25.5013 344.181 26.952C346.869 28.4027 348.96 30.472 350.453 33.16C351.989 35.848 352.757 38.984 352.757 42.568ZM341.557 39.688C341.557 37.8107 340.917 36.3173 339.637 35.208C338.357 34.0987 336.757 33.544 334.837 33.544C333.002 33.544 331.445 34.0773 330.165 35.144C328.928 36.2107 328.16 37.7253 327.861 39.688H341.557ZM406.333 30.536C406.333 33.1387 405.736 35.528 404.541 37.704C403.346 39.8373 401.512 41.5653 399.037 42.888C396.562 44.2107 393.49 44.872 389.821 44.872H383.037V61H372.093V16.072H389.821C393.405 16.072 396.434 16.6907 398.909 17.928C401.384 19.1653 403.24 20.872 404.477 23.048C405.714 25.224 406.333 27.72 406.333 30.536ZM388.989 36.168C391.08 36.168 392.637 35.6773 393.661 34.696C394.685 33.7147 395.197 32.328 395.197 30.536C395.197 28.744 394.685 27.3573 393.661 26.376C392.637 25.3947 391.08 24.904 388.989 24.904H383.037V36.168H388.989ZM445.694 42.568C445.694 43.592 445.631 44.6587 445.503 45.768H420.735C420.905 47.9867 421.609 49.6933 422.847 50.888C424.127 52.04 425.684 52.616 427.519 52.616C430.249 52.616 432.148 51.464 433.215 49.16H444.863C444.265 51.5067 443.177 53.6187 441.599 55.496C440.063 57.3733 438.121 58.8453 435.775 59.912C433.428 60.9787 430.804 61.512 427.903 61.512C424.404 61.512 421.289 60.7653 418.559 59.272C415.828 57.7787 413.695 55.6453 412.159 52.872C410.623 50.0987 409.855 46.856 409.855 43.144C409.855 39.432 410.601 36.1893 412.095 33.416C413.631 30.6427 415.764 28.5093 418.495 27.016C421.225 25.5227 424.361 24.776 427.903 24.776C431.359 24.776 434.431 25.5013 437.119 26.952C439.807 28.4027 441.897 30.472 443.391 33.16C444.927 35.848 445.694 38.984 445.694 42.568ZM434.495 39.688C434.495 37.8107 433.855 36.3173 432.575 35.208C431.295 34.0987 429.695 33.544 427.775 33.544C425.94 33.544 424.383 34.0773 423.103 35.144C421.865 36.2107 421.097 37.7253 420.799 39.688H434.495ZM473.228 24.904C477.409 24.904 480.737 26.2693 483.212 29C485.729 31.688 486.988 35.4 486.988 40.136V61H476.108V41.608C476.108 39.2187 475.489 37.3627 474.252 36.04C473.015 34.7173 471.351 34.056 469.26 34.056C467.169 34.056 465.505 34.7173 464.268 36.04C463.031 37.3627 462.412 39.2187 462.412 41.608V61H451.468V25.288H462.412V30.024C463.521 28.4453 465.015 27.208 466.892 26.312C468.769 25.3733 470.881 24.904 473.228 24.904ZM508.161 24.776C510.678 24.776 512.876 25.288 514.753 26.312C516.673 27.336 518.145 28.68 519.169 30.344V25.288H530.113V60.936C530.113 64.2213 529.452 67.1867 528.129 69.832C526.849 72.52 524.865 74.6533 522.177 76.232C519.532 77.8107 516.225 78.6 512.257 78.6C506.966 78.6 502.678 77.3413 499.393 74.824C496.108 72.3493 494.23 68.9787 493.761 64.712H504.577C504.918 66.0773 505.729 67.144 507.009 67.912C508.289 68.7227 509.868 69.128 511.745 69.128C514.006 69.128 515.798 68.4667 517.121 67.144C518.486 65.864 519.169 63.7947 519.169 60.936V55.88C518.102 57.544 516.63 58.9093 514.753 59.976C512.876 61 510.678 61.512 508.161 61.512C505.217 61.512 502.55 60.7653 500.161 59.272C497.772 57.736 495.873 55.5813 494.465 52.808C493.1 49.992 492.417 46.7493 492.417 43.08C492.417 39.4107 493.1 36.1893 494.465 33.416C495.873 30.6427 497.772 28.5093 500.161 27.016C502.55 25.5227 505.217 24.776 508.161 24.776ZM519.169 43.144C519.169 40.4133 518.401 38.2587 516.865 36.68C515.372 35.1013 513.537 34.312 511.361 34.312C509.185 34.312 507.329 35.1013 505.793 36.68C504.3 38.216 503.553 40.3493 503.553 43.08C503.553 45.8107 504.3 47.9867 505.793 49.608C507.329 51.1867 509.185 51.976 511.361 51.976C513.537 51.976 515.372 51.1867 516.865 49.608C518.401 48.0293 519.169 45.8747 519.169 43.144ZM535.855 43.08C535.855 39.4107 536.537 36.1893 537.903 33.416C539.311 30.6427 541.209 28.5093 543.599 27.016C545.988 25.5227 548.655 24.776 551.599 24.776C554.116 24.776 556.313 25.288 558.191 26.312C560.111 27.336 561.583 28.68 562.607 30.344V25.288H573.551V61H562.607V55.944C561.54 57.608 560.047 58.952 558.127 59.976C556.249 61 554.052 61.512 551.535 61.512C548.633 61.512 545.988 60.7653 543.599 59.272C541.209 57.736 539.311 55.5813 537.903 52.808C536.537 49.992 535.855 46.7493 535.855 43.08ZM562.607 43.144C562.607 40.4133 561.839 38.2587 560.303 36.68C558.809 35.1013 556.975 34.312 554.799 34.312C552.623 34.312 550.767 35.1013 549.231 36.68C547.737 38.216 546.991 40.3493 546.991 43.08C546.991 45.8107 547.737 47.9867 549.231 49.608C550.767 51.1867 552.623 51.976 554.799 51.976C556.975 51.976 558.809 51.1867 560.303 49.608C561.839 48.0293 562.607 45.8747 562.607 43.144ZM579.292 43.08C579.292 39.4107 579.975 36.1893 581.34 33.416C582.748 30.6427 584.647 28.5093 587.036 27.016C589.425 25.5227 592.092 24.776 595.036 24.776C597.383 24.776 599.516 25.2667 601.436 26.248C603.399 27.2293 604.935 28.552 606.044 30.216V13.64H616.988V61H606.044V55.88C605.02 57.5867 603.548 58.952 601.628 59.976C599.751 61 597.553 61.512 595.036 61.512C592.092 61.512 589.425 60.7653 587.036 59.272C584.647 57.736 582.748 55.5813 581.34 52.808C579.975 49.992 579.292 46.7493 579.292 43.08ZM606.044 43.144C606.044 40.4133 605.276 38.2587 603.74 36.68C602.247 35.1013 600.412 34.312 598.236 34.312C596.06 34.312 594.204 35.1013 592.668 36.68C591.175 38.216 590.428 40.3493 590.428 43.08C590.428 45.8107 591.175 47.9867 592.668 49.608C594.204 51.1867 596.06 51.976 598.236 51.976C600.412 51.976 602.247 51.1867 603.74 49.608C605.276 48.0293 606.044 45.8747 606.044 43.144ZM660.17 25.288V61H649.226V56.136C648.116 57.7147 646.602 58.9947 644.682 59.976C642.804 60.9147 640.714 61.384 638.41 61.384C635.679 61.384 633.268 60.7867 631.178 59.592C629.087 58.3547 627.466 56.584 626.314 54.28C625.162 51.976 624.586 49.2667 624.586 46.152V25.288H635.466V44.68C635.466 47.0693 636.084 48.9253 637.322 50.248C638.559 51.5707 640.223 52.232 642.314 52.232C644.447 52.232 646.132 51.5707 647.37 50.248C648.607 48.9253 649.226 47.0693 649.226 44.68V25.288H660.17ZM665.855 43.08C665.855 39.4107 666.537 36.1893 667.903 33.416C669.311 30.6427 671.209 28.5093 673.599 27.016C675.988 25.5227 678.655 24.776 681.599 24.776C684.116 24.776 686.313 25.288 688.191 26.312C690.111 27.336 691.583 28.68 692.607 30.344V25.288H703.551V61H692.607V55.944C691.54 57.608 690.047 58.952 688.127 59.976C686.249 61 684.052 61.512 681.535 61.512C678.633 61.512 675.988 60.7653 673.599 59.272C671.209 57.736 669.311 55.5813 667.903 52.808C666.537 49.992 665.855 46.7493 665.855 43.08ZM692.607 43.144C692.607 40.4133 691.839 38.2587 690.303 36.68C688.809 35.1013 686.975 34.312 684.799 34.312C682.623 34.312 680.767 35.1013 679.231 36.68C677.737 38.216 676.991 40.3493 676.991 43.08C676.991 45.8107 677.737 47.9867 679.231 49.608C680.767 51.1867 682.623 51.976 684.799 51.976C686.975 51.976 688.809 51.1867 690.303 49.608C691.839 48.0293 692.607 45.8747 692.607 43.144ZM733.228 24.904C737.409 24.904 740.737 26.2693 743.212 29C745.729 31.688 746.988 35.4 746.988 40.136V61H736.108V41.608C736.108 39.2187 735.489 37.3627 734.252 36.04C733.015 34.7173 731.351 34.056 729.26 34.056C727.169 34.056 725.505 34.7173 724.268 36.04C723.031 37.3627 722.412 39.2187 722.412 41.608V61H711.468V25.288H722.412V30.024C723.521 28.4453 725.015 27.208 726.892 26.312C728.769 25.3733 730.881 24.904 733.228 24.904ZM55.0668 93.072V138H44.1228V111.056L34.0748 138H25.2428L15.1308 110.992V138H4.18675V93.072H17.1147L29.7228 124.176L42.2028 93.072H55.0668ZM60.7608 120.08C60.7608 116.411 61.4434 113.189 62.8088 110.416C64.2168 107.643 66.1154 105.509 68.5048 104.016C70.8941 102.523 73.5608 101.776 76.5048 101.776C79.0221 101.776 81.2194 102.288 83.0968 103.312C85.0168 104.336 86.4888 105.68 87.5128 107.344V102.288H98.4568V138H87.5128V132.944C86.4461 134.608 84.9528 135.952 83.0328 136.976C81.1554 138 78.9581 138.512 76.4408 138.512C73.5394 138.512 70.8941 137.765 68.5048 136.272C66.1154 134.736 64.2168 132.581 62.8088 129.808C61.4434 126.992 60.7608 123.749 60.7608 120.08ZM87.5128 120.144C87.5128 117.413 86.7448 115.259 85.2088 113.68C83.7154 112.101 81.8808 111.312 79.7048 111.312C77.5288 111.312 75.6728 112.101 74.1368 113.68C72.6434 115.216 71.8968 117.349 71.8968 120.08C71.8968 122.811 72.6434 124.987 74.1368 126.608C75.6728 128.187 77.5288 128.976 79.7048 128.976C81.8808 128.976 83.7154 128.187 85.2088 126.608C86.7448 125.029 87.5128 122.875 87.5128 120.144ZM120.902 138.512C117.788 138.512 115.014 137.979 112.582 136.912C110.15 135.845 108.23 134.395 106.822 132.56C105.414 130.683 104.625 128.592 104.454 126.288H115.27C115.398 127.525 115.974 128.528 116.998 129.296C118.022 130.064 119.281 130.448 120.774 130.448C122.14 130.448 123.185 130.192 123.91 129.68C124.678 129.125 125.062 128.421 125.062 127.568C125.062 126.544 124.529 125.797 123.462 125.328C122.396 124.816 120.668 124.261 118.278 123.664C115.718 123.067 113.585 122.448 111.878 121.808C110.172 121.125 108.7 120.08 107.462 118.672C106.225 117.221 105.606 115.28 105.606 112.848C105.606 110.8 106.161 108.944 107.27 107.28C108.422 105.573 110.086 104.229 112.262 103.248C114.481 102.267 117.105 101.776 120.134 101.776C124.614 101.776 128.134 102.885 130.694 105.104C133.297 107.323 134.79 110.267 135.174 113.936H125.062C124.892 112.699 124.337 111.717 123.398 110.992C122.502 110.267 121.308 109.904 119.814 109.904C118.534 109.904 117.553 110.16 116.87 110.672C116.188 111.141 115.846 111.803 115.846 112.656C115.846 113.68 116.38 114.448 117.446 114.96C118.556 115.472 120.262 115.984 122.566 116.496C125.212 117.179 127.366 117.861 129.03 118.544C130.694 119.184 132.145 120.251 133.382 121.744C134.662 123.195 135.324 125.157 135.366 127.632C135.366 129.723 134.769 131.6 133.574 133.264C132.422 134.885 130.737 136.165 128.518 137.104C126.342 138.043 123.804 138.512 120.902 138.512ZM178.542 102.288L156.142 154.96H144.366L152.558 136.784L138.03 102.288H150.254L158.51 124.624L166.702 102.288H178.542ZM180.323 120.08C180.323 116.411 181.006 113.189 182.371 110.416C183.779 107.643 185.678 105.509 188.067 104.016C190.457 102.523 193.123 101.776 196.067 101.776C198.585 101.776 200.782 102.288 202.659 103.312C204.579 104.336 206.051 105.68 207.075 107.344V102.288H218.019V138H207.075V132.944C206.009 134.608 204.515 135.952 202.595 136.976C200.718 138 198.521 138.512 196.003 138.512C193.102 138.512 190.457 137.765 188.067 136.272C185.678 134.736 183.779 132.581 182.371 129.808C181.006 126.992 180.323 123.749 180.323 120.08ZM207.075 120.144C207.075 117.413 206.307 115.259 204.771 113.68C203.278 112.101 201.443 111.312 199.267 111.312C197.091 111.312 195.235 112.101 193.699 113.68C192.206 115.216 191.459 117.349 191.459 120.08C191.459 122.811 192.206 124.987 193.699 126.608C195.235 128.187 197.091 128.976 199.267 128.976C201.443 128.976 203.278 128.187 204.771 126.608C206.307 125.029 207.075 122.875 207.075 120.144ZM236.881 108.24C238.161 106.277 239.761 104.741 241.681 103.632C243.601 102.48 245.734 101.904 248.081 101.904V113.488H245.073C242.342 113.488 240.294 114.085 238.929 115.28C237.563 116.432 236.881 118.48 236.881 121.424V138H225.937V102.288H236.881V108.24ZM251.136 120.08C251.136 116.411 251.818 113.189 253.184 110.416C254.592 107.643 256.49 105.509 258.88 104.016C261.269 102.523 263.936 101.776 266.88 101.776C269.397 101.776 271.594 102.288 273.472 103.312C275.392 104.336 276.864 105.68 277.888 107.344V102.288H288.832V138H277.888V132.944C276.821 134.608 275.328 135.952 273.408 136.976C271.53 138 269.333 138.512 266.816 138.512C263.914 138.512 261.269 137.765 258.88 136.272C256.49 134.736 254.592 132.581 253.184 129.808C251.818 126.992 251.136 123.749 251.136 120.08ZM277.888 120.144C277.888 117.413 277.12 115.259 275.584 113.68C274.09 112.101 272.256 111.312 270.08 111.312C267.904 111.312 266.048 112.101 264.512 113.68C263.018 115.216 262.272 117.349 262.272 120.08C262.272 122.811 263.018 124.987 264.512 126.608C266.048 128.187 267.904 128.976 270.08 128.976C272.256 128.976 274.09 128.187 275.584 126.608C277.12 125.029 277.888 122.875 277.888 120.144ZM318.573 138L307.693 123.024V138H296.749V90.64H307.693V116.816L318.509 102.288H332.013L317.165 120.208L332.141 138H318.573ZM334.136 120.08C334.136 116.411 334.818 113.189 336.184 110.416C337.592 107.643 339.49 105.509 341.88 104.016C344.269 102.523 346.936 101.776 349.88 101.776C352.397 101.776 354.594 102.288 356.472 103.312C358.392 104.336 359.864 105.68 360.888 107.344V102.288H371.832V138H360.888V132.944C359.821 134.608 358.328 135.952 356.408 136.976C354.53 138 352.333 138.512 349.816 138.512C346.914 138.512 344.269 137.765 341.88 136.272C339.49 134.736 337.592 132.581 336.184 129.808C334.818 126.992 334.136 123.749 334.136 120.08ZM360.888 120.144C360.888 117.413 360.12 115.259 358.584 113.68C357.09 112.101 355.256 111.312 353.08 111.312C350.904 111.312 349.048 112.101 347.512 113.68C346.018 115.216 345.272 117.349 345.272 120.08C345.272 122.811 346.018 124.987 347.512 126.608C349.048 128.187 350.904 128.976 353.08 128.976C355.256 128.976 357.09 128.187 358.584 126.608C360.12 125.029 360.888 122.875 360.888 120.144ZM399.653 128.72V138H394.085C390.117 138 387.024 137.04 384.805 135.12C382.587 133.157 381.477 129.979 381.477 125.584V111.376H377.125V102.288H381.477V93.584H392.421V102.288H399.589V111.376H392.421V125.712C392.421 126.779 392.677 127.547 393.189 128.016C393.701 128.485 394.555 128.72 395.749 128.72H399.653ZM445.36 138L430.256 118.16V138H419.312V93.072H430.256V112.784L445.232 93.072H458.096L440.688 115.088L458.736 138H445.36ZM480.193 138.512C476.694 138.512 473.537 137.765 470.721 136.272C467.947 134.779 465.75 132.645 464.129 129.872C462.55 127.099 461.761 123.856 461.761 120.144C461.761 116.475 462.571 113.253 464.193 110.48C465.814 107.664 468.033 105.509 470.849 104.016C473.665 102.523 476.822 101.776 480.321 101.776C483.819 101.776 486.977 102.523 489.793 104.016C492.609 105.509 494.827 107.664 496.449 110.48C498.07 113.253 498.881 116.475 498.881 120.144C498.881 123.813 498.049 127.056 496.385 129.872C494.763 132.645 492.523 134.779 489.665 136.272C486.849 137.765 483.691 138.512 480.193 138.512ZM480.193 129.04C482.283 129.04 484.054 128.272 485.505 126.736C486.998 125.2 487.745 123.003 487.745 120.144C487.745 117.285 487.019 115.088 485.569 113.552C484.161 112.016 482.411 111.248 480.321 111.248C478.187 111.248 476.417 112.016 475.009 113.552C473.601 115.045 472.897 117.243 472.897 120.144C472.897 123.003 473.579 125.2 474.945 126.736C476.353 128.272 478.102 129.04 480.193 129.04ZM524.591 128.72V138H519.023C515.055 138 511.961 137.04 509.743 135.12C507.524 133.157 506.415 129.979 506.415 125.584V111.376H502.063V102.288H506.415V93.584H517.359V102.288H524.527V111.376H517.359V125.712C517.359 126.779 517.615 127.547 518.127 128.016C518.639 128.485 519.492 128.72 520.687 128.72H524.591ZM528.511 120.08C528.511 116.411 529.193 113.189 530.559 110.416C531.967 107.643 533.865 105.509 536.255 104.016C538.644 102.523 541.311 101.776 544.255 101.776C546.772 101.776 548.969 102.288 550.847 103.312C552.767 104.336 554.239 105.68 555.263 107.344V102.288H566.207V138H555.263V132.944C554.196 134.608 552.703 135.952 550.783 136.976C548.905 138 546.708 138.512 544.191 138.512C541.289 138.512 538.644 137.765 536.255 136.272C533.865 134.736 531.967 132.581 530.559 129.808C529.193 126.992 528.511 123.749 528.511 120.08ZM555.263 120.144C555.263 117.413 554.495 115.259 552.959 113.68C551.465 112.101 549.631 111.312 547.455 111.312C545.279 111.312 543.423 112.101 541.887 113.68C540.393 115.216 539.647 117.349 539.647 120.08C539.647 122.811 540.393 124.987 541.887 126.608C543.423 128.187 545.279 128.976 547.455 128.976C549.631 128.976 551.465 128.187 552.959 126.608C554.495 125.029 555.263 122.875 555.263 120.144ZM638.567 93.072V138H627.623V111.056L617.575 138H608.743L598.631 110.992V138H587.687V93.072H600.615L613.223 124.176L625.703 93.072H638.567ZM644.261 120.08C644.261 116.411 644.943 113.189 646.309 110.416C647.717 107.643 649.615 105.509 652.005 104.016C654.394 102.523 657.061 101.776 660.005 101.776C662.522 101.776 664.719 102.288 666.597 103.312C668.517 104.336 669.989 105.68 671.013 107.344V102.288H681.957V138H671.013V132.944C669.946 134.608 668.453 135.952 666.533 136.976C664.655 138 662.458 138.512 659.941 138.512C657.039 138.512 654.394 137.765 652.005 136.272C649.615 134.736 647.717 132.581 646.309 129.808C644.943 126.992 644.261 123.749 644.261 120.08ZM671.013 120.144C671.013 117.413 670.245 115.259 668.709 113.68C667.215 112.101 665.381 111.312 663.205 111.312C661.029 111.312 659.173 112.101 657.637 113.68C656.143 115.216 655.397 117.349 655.397 120.08C655.397 122.811 656.143 124.987 657.637 126.608C659.173 128.187 661.029 128.976 663.205 128.976C665.381 128.976 667.215 128.187 668.709 126.608C670.245 125.029 671.013 122.875 671.013 120.144ZM700.818 90.64V138H689.874V90.64H700.818ZM706.573 120.08C706.573 116.411 707.256 113.189 708.621 110.416C710.029 107.643 711.928 105.509 714.317 104.016C716.707 102.523 719.373 101.776 722.317 101.776C724.835 101.776 727.032 102.288 728.909 103.312C730.829 104.336 732.301 105.68 733.325 107.344V102.288H744.269V138H733.325V132.944C732.259 134.608 730.765 135.952 728.845 136.976C726.968 138 724.771 138.512 722.253 138.512C719.352 138.512 716.707 137.765 714.317 136.272C711.928 134.736 710.029 132.581 708.621 129.808C707.256 126.992 706.573 123.749 706.573 120.08ZM733.325 120.144C733.325 117.413 732.557 115.259 731.021 113.68C729.528 112.101 727.693 111.312 725.517 111.312C723.341 111.312 721.485 112.101 719.949 113.68C718.456 115.216 717.709 117.349 717.709 120.08C717.709 122.811 718.456 124.987 719.949 126.608C721.485 128.187 723.341 128.976 725.517 128.976C727.693 128.976 729.528 128.187 731.021 126.608C732.557 125.029 733.325 122.875 733.325 120.144ZM773.947 101.904C778.128 101.904 781.456 103.269 783.931 106C786.448 108.688 787.707 112.4 787.707 117.136V138H776.827V118.608C776.827 116.219 776.208 114.363 774.971 113.04C773.733 111.717 772.069 111.056 769.979 111.056C767.888 111.056 766.224 111.717 764.987 113.04C763.749 114.363 763.131 116.219 763.131 118.608V138H752.187V102.288H763.131V107.024C764.24 105.445 765.733 104.208 767.611 103.312C769.488 102.373 771.6 101.904 773.947 101.904ZM808.88 101.776C811.397 101.776 813.594 102.288 815.472 103.312C817.392 104.336 818.864 105.68 819.888 107.344V102.288H830.832V137.936C830.832 141.221 830.17 144.187 828.848 146.832C827.568 149.52 825.584 151.653 822.896 153.232C820.25 154.811 816.944 155.6 812.976 155.6C807.685 155.6 803.397 154.341 800.112 151.824C796.826 149.349 794.949 145.979 794.48 141.712H805.296C805.637 143.077 806.448 144.144 807.728 144.912C809.008 145.723 810.586 146.128 812.464 146.128C814.725 146.128 816.517 145.467 817.84 144.144C819.205 142.864 819.888 140.795 819.888 137.936V132.88C818.821 134.544 817.349 135.909 815.472 136.976C813.594 138 811.397 138.512 808.88 138.512C805.936 138.512 803.269 137.765 800.88 136.272C798.49 134.736 796.592 132.581 795.184 129.808C793.818 126.992 793.136 123.749 793.136 120.08C793.136 116.411 793.818 113.189 795.184 110.416C796.592 107.643 798.49 105.509 800.88 104.016C803.269 102.523 805.936 101.776 808.88 101.776ZM819.888 120.144C819.888 117.413 819.12 115.259 817.584 113.68C816.09 112.101 814.256 111.312 812.08 111.312C809.904 111.312 808.048 112.101 806.512 113.68C805.018 115.216 804.272 117.349 804.272 120.08C804.272 122.811 805.018 124.987 806.512 126.608C808.048 128.187 809.904 128.976 812.08 128.976C814.256 128.976 816.09 128.187 817.584 126.608C819.12 125.029 819.888 122.875 819.888 120.144Z" fill="#1E1E1E"/>
</mask>
<g mask="url(#mask0_454_1654)">
<rect x="-14" y="-54" width="907" height="317" fill="#1E1E1E"/>
</g>
</svg>
