<svg width="1208" height="170" viewBox="0 0 1208 170" fill="none" xmlns="http://www.w3.org/2000/svg">
<rect width="1208" height="170" fill="#F3F3F3"/>
<path d="M452.76 48.344H447.672L446.696 51H445.512L449.592 39.96H450.856L454.92 51H453.736L452.76 48.344ZM452.424 47.416L450.216 41.368L448.008 47.416H452.424ZM457.502 44.184C457.779 43.5973 458.216 43.112 458.814 42.728C459.422 42.3333 460.142 42.136 460.974 42.136C461.763 42.136 462.472 42.3227 463.102 42.696C463.742 43.0587 464.238 43.5813 464.59 44.264C464.952 44.936 465.134 45.72 465.134 46.616C465.134 47.512 464.952 48.3013 464.59 48.984C464.238 49.6667 463.742 50.1947 463.102 50.568C462.472 50.9413 461.763 51.128 460.974 51.128C460.152 51.128 459.438 50.936 458.83 50.552C458.222 50.1573 457.779 49.6667 457.502 49.08V55.128H456.398V42.264H457.502V44.184ZM463.998 46.616C463.998 45.8907 463.854 45.2667 463.566 44.744C463.288 44.2107 462.904 43.8053 462.414 43.528C461.923 43.2507 461.368 43.112 460.75 43.112C460.152 43.112 459.603 43.256 459.102 43.544C458.611 43.832 458.222 44.2427 457.934 44.776C457.646 45.3093 457.502 45.928 457.502 46.632C457.502 47.336 457.646 47.9547 457.934 48.488C458.222 49.0213 458.611 49.432 459.102 49.72C459.603 50.008 460.152 50.152 460.75 50.152C461.368 50.152 461.923 50.0133 462.414 49.736C462.904 49.448 463.288 49.0373 463.566 48.504C463.854 47.96 463.998 47.3307 463.998 46.616ZM466.362 46.616C466.362 45.72 466.538 44.936 466.89 44.264C467.253 43.5813 467.749 43.0587 468.378 42.696C469.018 42.3227 469.738 42.136 470.538 42.136C471.37 42.136 472.085 42.328 472.682 42.712C473.29 43.096 473.728 43.5867 473.994 44.184V42.264H475.114V51H473.994V49.064C473.717 49.6613 473.274 50.1573 472.666 50.552C472.069 50.936 471.354 51.128 470.522 51.128C469.733 51.128 469.018 50.9413 468.378 50.568C467.749 50.1947 467.253 49.6667 466.89 48.984C466.538 48.3013 466.362 47.512 466.362 46.616ZM473.994 46.632C473.994 45.928 473.85 45.3093 473.562 44.776C473.274 44.2427 472.88 43.832 472.378 43.544C471.888 43.256 471.344 43.112 470.746 43.112C470.128 43.112 469.573 43.2507 469.082 43.528C468.592 43.8053 468.202 44.2107 467.914 44.744C467.637 45.2667 467.498 45.8907 467.498 46.616C467.498 47.3307 467.637 47.96 467.914 48.504C468.202 49.0373 468.592 49.448 469.082 49.736C469.573 50.0133 470.128 50.152 470.746 50.152C471.344 50.152 471.888 50.008 472.378 49.72C472.88 49.432 473.274 49.0213 473.562 48.488C473.85 47.9547 473.994 47.336 473.994 46.632ZM482.071 51L478.471 47.08V51H477.351V39.16H478.471V46.168L481.991 42.264H483.559L479.415 46.616L483.591 51H482.071ZM484.207 46.616C484.207 45.72 484.383 44.936 484.735 44.264C485.097 43.5813 485.593 43.0587 486.223 42.696C486.863 42.3227 487.583 42.136 488.383 42.136C489.215 42.136 489.929 42.328 490.527 42.712C491.135 43.096 491.572 43.5867 491.839 44.184V42.264H492.959V51H491.839V49.064C491.561 49.6613 491.119 50.1573 490.511 50.552C489.913 50.936 489.199 51.128 488.367 51.128C487.577 51.128 486.863 50.9413 486.223 50.568C485.593 50.1947 485.097 49.6667 484.735 48.984C484.383 48.3013 484.207 47.512 484.207 46.616ZM491.839 46.632C491.839 45.928 491.695 45.3093 491.407 44.776C491.119 44.2427 490.724 43.832 490.223 43.544C489.732 43.256 489.188 43.112 488.591 43.112C487.972 43.112 487.417 43.2507 486.927 43.528C486.436 43.8053 486.047 44.2107 485.759 44.744C485.481 45.2667 485.343 45.8907 485.343 46.616C485.343 47.3307 485.481 47.96 485.759 48.504C486.047 49.0373 486.436 49.448 486.927 49.736C487.417 50.0133 487.972 50.152 488.591 50.152C489.188 50.152 489.732 50.008 490.223 49.72C490.724 49.432 491.119 49.0213 491.407 48.488C491.695 47.9547 491.839 47.336 491.839 46.632ZM499.356 42.104C500.017 42.104 500.609 42.2427 501.132 42.52C501.665 42.7973 502.081 43.224 502.38 43.8C502.689 44.3653 502.844 45.0587 502.844 45.88V51H501.74V46.008C501.74 45.0587 501.5 44.3333 501.02 43.832C500.55 43.3307 499.905 43.08 499.084 43.08C498.241 43.08 497.569 43.3467 497.068 43.88C496.566 44.4133 496.316 45.1973 496.316 46.232V51H495.196V39.16H496.316V43.752C496.593 43.2293 496.998 42.824 497.532 42.536C498.076 42.248 498.684 42.104 499.356 42.104ZM510.527 43.208V48.632C510.527 49.1653 510.629 49.5333 510.831 49.736C511.034 49.9387 511.391 50.04 511.903 50.04H512.927V51H511.727C510.938 51 510.351 50.8187 509.967 50.456C509.583 50.0827 509.391 49.4747 509.391 48.632V43.208H508.175V42.264H509.391V40.072H510.527V42.264H512.927V43.208H510.527ZM522.358 46.184C522.358 46.568 522.348 46.8613 522.326 47.064H515.078C515.11 47.7253 515.27 48.2907 515.558 48.76C515.846 49.2293 516.225 49.5867 516.694 49.832C517.164 50.0667 517.676 50.184 518.23 50.184C518.956 50.184 519.564 50.008 520.054 49.656C520.556 49.304 520.886 48.8293 521.046 48.232H522.23C522.017 49.0853 521.558 49.784 520.854 50.328C520.161 50.8613 519.286 51.128 518.23 51.128C517.409 51.128 516.673 50.9467 516.022 50.584C515.372 50.2107 514.86 49.688 514.486 49.016C514.124 48.3333 513.942 47.5387 513.942 46.632C513.942 45.7253 514.124 44.9307 514.486 44.248C514.849 43.5653 515.356 43.0427 516.006 42.68C516.657 42.3173 517.398 42.136 518.23 42.136C519.062 42.136 519.788 42.3173 520.406 42.68C521.036 43.0427 521.516 43.5333 521.846 44.152C522.188 44.76 522.358 45.4373 522.358 46.184ZM521.222 46.152C521.233 45.5013 521.1 44.9467 520.822 44.488C520.556 44.0293 520.188 43.6827 519.718 43.448C519.249 43.2133 518.737 43.096 518.182 43.096C517.35 43.096 516.641 43.3627 516.054 43.896C515.468 44.4293 515.142 45.1813 515.078 46.152H521.222ZM525.208 39.16V51H524.088V39.16H525.208ZM526.912 46.616C526.912 45.72 527.088 44.936 527.44 44.264C527.802 43.5813 528.298 43.0587 528.928 42.696C529.568 42.3227 530.288 42.136 531.088 42.136C531.92 42.136 532.634 42.328 533.232 42.712C533.84 43.096 534.277 43.5867 534.544 44.184V42.264H535.664V51H534.544V49.064C534.266 49.6613 533.824 50.1573 533.216 50.552C532.618 50.936 531.904 51.128 531.072 51.128C530.282 51.128 529.568 50.9413 528.928 50.568C528.298 50.1947 527.802 49.6667 527.44 48.984C527.088 48.3013 526.912 47.512 526.912 46.616ZM534.544 46.632C534.544 45.928 534.4 45.3093 534.112 44.776C533.824 44.2427 533.429 43.832 532.928 43.544C532.437 43.256 531.893 43.112 531.296 43.112C530.677 43.112 530.122 43.2507 529.632 43.528C529.141 43.8053 528.752 44.2107 528.464 44.744C528.186 45.2667 528.048 45.8907 528.048 46.616C528.048 47.3307 528.186 47.96 528.464 48.504C528.752 49.0373 529.141 49.448 529.632 49.736C530.122 50.0133 530.677 50.152 531.296 50.152C531.893 50.152 532.437 50.008 532.928 49.72C533.429 49.432 533.824 49.0213 534.112 48.488C534.4 47.9547 534.544 47.336 534.544 46.632ZM542.061 42.104C542.722 42.104 543.314 42.2427 543.837 42.52C544.37 42.7973 544.786 43.224 545.085 43.8C545.394 44.3653 545.549 45.0587 545.549 45.88V51H544.445V46.008C544.445 45.0587 544.205 44.3333 543.725 43.832C543.255 43.3307 542.61 43.08 541.789 43.08C540.946 43.08 540.274 43.3467 539.773 43.88C539.271 44.4133 539.021 45.1973 539.021 46.232V51H537.901V39.16H539.021V43.752C539.298 43.2293 539.703 42.824 540.237 42.536C540.781 42.248 541.389 42.104 542.061 42.104ZM562.176 42.104C563.2 42.104 564.032 42.4293 564.672 43.08C565.323 43.72 565.648 44.6533 565.648 45.88V51H564.544V46.008C564.544 45.0587 564.315 44.3333 563.856 43.832C563.398 43.3307 562.774 43.08 561.984 43.08C561.163 43.08 560.507 43.352 560.016 43.896C559.526 44.44 559.28 45.2293 559.28 46.264V51H558.176V46.008C558.176 45.0587 557.947 44.3333 557.488 43.832C557.03 43.3307 556.4 43.08 555.6 43.08C554.779 43.08 554.123 43.352 553.632 43.896C553.142 44.44 552.896 45.2293 552.896 46.264V51H551.776V42.264H552.896V43.768C553.174 43.224 553.568 42.8133 554.08 42.536C554.592 42.248 555.163 42.104 555.792 42.104C556.55 42.104 557.211 42.2853 557.776 42.648C558.352 43.0107 558.768 43.544 559.024 44.248C559.259 43.5547 559.659 43.0267 560.224 42.664C560.8 42.2907 561.451 42.104 562.176 42.104ZM575.72 46.184C575.72 46.568 575.709 46.8613 575.688 47.064H568.44C568.472 47.7253 568.632 48.2907 568.92 48.76C569.208 49.2293 569.586 49.5867 570.056 49.832C570.525 50.0667 571.037 50.184 571.592 50.184C572.317 50.184 572.925 50.008 573.416 49.656C573.917 49.304 574.248 48.8293 574.408 48.232H575.592C575.378 49.0853 574.92 49.784 574.216 50.328C573.522 50.8613 572.648 51.128 571.592 51.128C570.77 51.128 570.034 50.9467 569.384 50.584C568.733 50.2107 568.221 49.688 567.848 49.016C567.485 48.3333 567.304 47.5387 567.304 46.632C567.304 45.7253 567.485 44.9307 567.848 44.248C568.21 43.5653 568.717 43.0427 569.368 42.68C570.018 42.3173 570.76 42.136 571.592 42.136C572.424 42.136 573.149 42.3173 573.768 42.68C574.397 43.0427 574.877 43.5333 575.208 44.152C575.549 44.76 575.72 45.4373 575.72 46.184ZM574.584 46.152C574.594 45.5013 574.461 44.9467 574.184 44.488C573.917 44.0293 573.549 43.6827 573.08 43.448C572.61 43.2133 572.098 43.096 571.544 43.096C570.712 43.096 570.002 43.3627 569.416 43.896C568.829 44.4293 568.504 45.1813 568.44 46.152H574.584ZM581.545 42.104C582.59 42.104 583.443 42.4293 584.105 43.08C584.766 43.72 585.097 44.6533 585.097 45.88V51H583.993V46.008C583.993 45.0587 583.753 44.3333 583.273 43.832C582.803 43.3307 582.158 43.08 581.337 43.08C580.494 43.08 579.822 43.3467 579.321 43.88C578.819 44.4133 578.569 45.1973 578.569 46.232V51H577.449V42.264H578.569V43.752C578.846 43.2187 579.246 42.8133 579.769 42.536C580.291 42.248 580.883 42.104 581.545 42.104ZM587.894 40.616C587.67 40.616 587.478 40.536 587.318 40.376C587.158 40.216 587.078 40.0187 587.078 39.784C587.078 39.5493 587.158 39.3573 587.318 39.208C587.478 39.048 587.67 38.968 587.894 38.968C588.118 38.968 588.304 39.048 588.454 39.208C588.614 39.3573 588.694 39.5493 588.694 39.784C588.694 40.0187 588.614 40.216 588.454 40.376C588.304 40.536 588.118 40.616 587.894 40.616ZM588.438 53.064C588.438 53.768 588.262 54.2853 587.91 54.616C587.558 54.9573 587.03 55.128 586.326 55.128H585.542V54.168H586.15C586.566 54.168 586.864 54.0773 587.046 53.896C587.227 53.7253 587.318 53.432 587.318 53.016V42.264H588.438V53.064ZM590.172 46.616C590.172 45.72 590.348 44.936 590.7 44.264C591.062 43.5813 591.558 43.0587 592.188 42.696C592.828 42.3227 593.548 42.136 594.348 42.136C595.18 42.136 595.894 42.328 596.492 42.712C597.1 43.096 597.537 43.5867 597.804 44.184V42.264H598.924V51H597.804V49.064C597.526 49.6613 597.084 50.1573 596.476 50.552C595.878 50.936 595.164 51.128 594.332 51.128C593.542 51.128 592.828 50.9413 592.188 50.568C591.558 50.1947 591.062 49.6667 590.7 48.984C590.348 48.3013 590.172 47.512 590.172 46.616ZM597.804 46.632C597.804 45.928 597.66 45.3093 597.372 44.776C597.084 44.2427 596.689 43.832 596.188 43.544C595.697 43.256 595.153 43.112 594.556 43.112C593.937 43.112 593.382 43.2507 592.892 43.528C592.401 43.8053 592.012 44.2107 591.724 44.744C591.446 45.2667 591.308 45.8907 591.308 46.616C591.308 47.3307 591.446 47.96 591.724 48.504C592.012 49.0373 592.401 49.448 592.892 49.736C593.382 50.0133 593.937 50.152 594.556 50.152C595.153 50.152 595.697 50.008 596.188 49.72C596.689 49.432 597.084 49.0213 597.372 48.488C597.66 47.9547 597.804 47.336 597.804 46.632ZM612.681 42.264L609.945 51H608.825L606.409 43.672L603.993 51H602.857L600.121 42.264H601.257L603.433 49.864L605.881 42.264H607.001L609.417 49.88L611.577 42.264H612.681ZM613.375 46.616C613.375 45.72 613.551 44.936 613.903 44.264C614.266 43.5813 614.762 43.0587 615.391 42.696C616.031 42.3227 616.751 42.136 617.551 42.136C618.383 42.136 619.098 42.328 619.695 42.712C620.303 43.096 620.741 43.5867 621.007 44.184V42.264H622.127V51H621.007V49.064C620.73 49.6613 620.287 50.1573 619.679 50.552C619.082 50.936 618.367 51.128 617.535 51.128C616.746 51.128 616.031 50.9413 615.391 50.568C614.762 50.1947 614.266 49.6667 613.903 48.984C613.551 48.3013 613.375 47.512 613.375 46.616ZM621.007 46.632C621.007 45.928 620.863 45.3093 620.575 44.776C620.287 44.2427 619.893 43.832 619.391 43.544C618.901 43.256 618.357 43.112 617.759 43.112C617.141 43.112 616.586 43.2507 616.095 43.528C615.605 43.8053 615.215 44.2107 614.927 44.744C614.65 45.2667 614.511 45.8907 614.511 46.616C614.511 47.3307 614.65 47.96 614.927 48.504C615.215 49.0373 615.605 49.448 616.095 49.736C616.586 50.0133 617.141 50.152 617.759 50.152C618.357 50.152 618.901 50.008 619.391 49.72C619.893 49.432 620.287 49.0213 620.575 48.488C620.863 47.9547 621.007 47.336 621.007 46.632ZM625.468 44.2C625.756 43.592 626.199 43.096 626.796 42.712C627.404 42.328 628.119 42.136 628.94 42.136C629.74 42.136 630.455 42.3227 631.084 42.696C631.714 43.0587 632.204 43.5813 632.556 44.264C632.919 44.936 633.1 45.72 633.1 46.616C633.1 47.512 632.919 48.3013 632.556 48.984C632.204 49.6667 631.708 50.1947 631.068 50.568C630.439 50.9413 629.73 51.128 628.94 51.128C628.108 51.128 627.388 50.9413 626.78 50.568C626.183 50.184 625.746 49.688 625.468 49.08V51H624.364V39.16H625.468V44.2ZM631.964 46.616C631.964 45.8907 631.82 45.2667 631.532 44.744C631.255 44.2107 630.871 43.8053 630.38 43.528C629.89 43.2507 629.335 43.112 628.716 43.112C628.119 43.112 627.57 43.256 627.068 43.544C626.578 43.832 626.188 44.2427 625.9 44.776C625.612 45.3093 625.468 45.928 625.468 46.632C625.468 47.336 625.612 47.9547 625.9 48.488C626.188 49.0213 626.578 49.432 627.068 49.72C627.57 50.008 628.119 50.152 628.716 50.152C629.335 50.152 629.89 50.0133 630.38 49.736C630.871 49.448 631.255 49.0373 631.532 48.504C631.82 47.96 631.964 47.3307 631.964 46.616ZM640.016 44.184C640.293 43.5973 640.731 43.112 641.328 42.728C641.936 42.3333 642.656 42.136 643.488 42.136C644.277 42.136 644.987 42.3227 645.616 42.696C646.256 43.0587 646.752 43.5813 647.104 44.264C647.467 44.936 647.648 45.72 647.648 46.616C647.648 47.512 647.467 48.3013 647.104 48.984C646.752 49.6667 646.256 50.1947 645.616 50.568C644.987 50.9413 644.277 51.128 643.488 51.128C642.667 51.128 641.952 50.936 641.344 50.552C640.736 50.1573 640.293 49.6667 640.016 49.08V55.128H638.912V42.264H640.016V44.184ZM646.512 46.616C646.512 45.8907 646.368 45.2667 646.08 44.744C645.803 44.2107 645.419 43.8053 644.928 43.528C644.437 43.2507 643.883 43.112 643.264 43.112C642.667 43.112 642.117 43.256 641.616 43.544C641.125 43.832 640.736 44.2427 640.448 44.776C640.16 45.3093 640.016 45.928 640.016 46.632C640.016 47.336 640.16 47.9547 640.448 48.488C640.736 49.0213 641.125 49.432 641.616 49.72C642.117 50.008 642.667 50.152 643.264 50.152C643.883 50.152 644.437 50.0133 644.928 49.736C645.419 49.448 645.803 49.0373 646.08 48.504C646.368 47.96 646.512 47.3307 646.512 46.616ZM657.293 46.184C657.293 46.568 657.282 46.8613 657.261 47.064H650.013C650.045 47.7253 650.205 48.2907 650.493 48.76C650.781 49.2293 651.159 49.5867 651.629 49.832C652.098 50.0667 652.61 50.184 653.165 50.184C653.89 50.184 654.498 50.008 654.989 49.656C655.49 49.304 655.821 48.8293 655.981 48.232H657.165C656.951 49.0853 656.493 49.784 655.789 50.328C655.095 50.8613 654.221 51.128 653.165 51.128C652.343 51.128 651.607 50.9467 650.957 50.584C650.306 50.2107 649.794 49.688 649.421 49.016C649.058 48.3333 648.877 47.5387 648.877 46.632C648.877 45.7253 649.058 44.9307 649.421 44.248C649.783 43.5653 650.29 43.0427 650.941 42.68C651.591 42.3173 652.333 42.136 653.165 42.136C653.997 42.136 654.722 42.3173 655.341 42.68C655.97 43.0427 656.45 43.5333 656.781 44.152C657.122 44.76 657.293 45.4373 657.293 46.184ZM656.157 46.152C656.167 45.5013 656.034 44.9467 655.757 44.488C655.49 44.0293 655.122 43.6827 654.653 43.448C654.183 43.2133 653.671 43.096 653.117 43.096C652.285 43.096 651.575 43.3627 650.989 43.896C650.402 44.4293 650.077 45.1813 650.013 46.152H656.157ZM660.142 43.816C660.387 43.272 660.761 42.8507 661.262 42.552C661.774 42.2533 662.398 42.104 663.134 42.104V43.272H662.83C662.019 43.272 661.369 43.4907 660.878 43.928C660.387 44.3653 660.142 45.096 660.142 46.12V51H659.022V42.264H660.142V43.816ZM665.955 43.208V48.632C665.955 49.1653 666.056 49.5333 666.259 49.736C666.461 49.9387 666.819 50.04 667.331 50.04H668.355V51H667.155C666.365 51 665.779 50.8187 665.395 50.456C665.011 50.0827 664.819 49.4747 664.819 48.632V43.208H663.603V42.264H664.819V40.072H665.955V42.264H668.355V43.208H665.955ZM669.37 46.616C669.37 45.72 669.546 44.936 669.898 44.264C670.261 43.5813 670.757 43.0587 671.386 42.696C672.026 42.3227 672.746 42.136 673.546 42.136C674.378 42.136 675.093 42.328 675.69 42.712C676.298 43.096 676.735 43.5867 677.002 44.184V42.264H678.122V51H677.002V49.064C676.725 49.6613 676.282 50.1573 675.674 50.552C675.077 50.936 674.362 51.128 673.53 51.128C672.741 51.128 672.026 50.9413 671.386 50.568C670.757 50.1947 670.261 49.6667 669.898 48.984C669.546 48.3013 669.37 47.512 669.37 46.616ZM677.002 46.632C677.002 45.928 676.858 45.3093 676.57 44.776C676.282 44.2427 675.887 43.832 675.386 43.544C674.895 43.256 674.351 43.112 673.754 43.112C673.135 43.112 672.581 43.2507 672.09 43.528C671.599 43.8053 671.21 44.2107 670.922 44.744C670.645 45.2667 670.506 45.8907 670.506 46.616C670.506 47.3307 670.645 47.96 670.922 48.504C671.21 49.0373 671.599 49.448 672.09 49.736C672.581 50.0133 673.135 50.152 673.754 50.152C674.351 50.152 674.895 50.008 675.386 49.72C675.887 49.432 676.282 49.0213 676.57 48.488C676.858 47.9547 677.002 47.336 677.002 46.632ZM684.455 42.104C685.5 42.104 686.353 42.4293 687.015 43.08C687.676 43.72 688.007 44.6533 688.007 45.88V51H686.903V46.008C686.903 45.0587 686.663 44.3333 686.183 43.832C685.713 43.3307 685.068 43.08 684.247 43.08C683.404 43.08 682.732 43.3467 682.231 43.88C681.729 44.4133 681.479 45.1973 681.479 46.232V51H680.359V42.264H681.479V43.752C681.756 43.2187 682.156 42.8133 682.679 42.536C683.201 42.248 683.793 42.104 684.455 42.104ZM697.364 42.264L692.18 55.112H691.012L692.708 50.952L689.124 42.264H690.356L693.332 49.72L696.212 42.264H697.364ZM698.051 46.616C698.051 45.72 698.227 44.936 698.579 44.264C698.941 43.5813 699.437 43.0587 700.067 42.696C700.707 42.3227 701.427 42.136 702.227 42.136C703.059 42.136 703.773 42.328 704.371 42.712C704.979 43.096 705.416 43.5867 705.683 44.184V42.264H706.803V51H705.683V49.064C705.405 49.6613 704.963 50.1573 704.355 50.552C703.757 50.936 703.043 51.128 702.211 51.128C701.421 51.128 700.707 50.9413 700.067 50.568C699.437 50.1947 698.941 49.6667 698.579 48.984C698.227 48.3013 698.051 47.512 698.051 46.616ZM705.683 46.632C705.683 45.928 705.539 45.3093 705.251 44.776C704.963 44.2427 704.568 43.832 704.067 43.544C703.576 43.256 703.032 43.112 702.435 43.112C701.816 43.112 701.261 43.2507 700.771 43.528C700.28 43.8053 699.891 44.2107 699.603 44.744C699.325 45.2667 699.187 45.8907 699.187 46.616C699.187 47.3307 699.325 47.96 699.603 48.504C699.891 49.0373 700.28 49.448 700.771 49.736C701.261 50.0133 701.816 50.152 702.435 50.152C703.032 50.152 703.576 50.008 704.067 49.72C704.568 49.432 704.963 49.0213 705.251 48.488C705.539 47.9547 705.683 47.336 705.683 46.632ZM708.527 46.616C708.527 45.72 708.703 44.936 709.055 44.264C709.418 43.5813 709.914 43.0587 710.543 42.696C711.183 42.3227 711.903 42.136 712.703 42.136C713.535 42.136 714.25 42.328 714.847 42.712C715.455 43.096 715.893 43.5867 716.159 44.184V42.264H717.279V51H716.159V49.064C715.882 49.6613 715.439 50.1573 714.831 50.552C714.234 50.936 713.519 51.128 712.687 51.128C711.898 51.128 711.183 50.9413 710.543 50.568C709.914 50.1947 709.418 49.6667 709.055 48.984C708.703 48.3013 708.527 47.512 708.527 46.616ZM716.159 46.632C716.159 45.928 716.015 45.3093 715.727 44.776C715.439 44.2427 715.045 43.832 714.543 43.544C714.053 43.256 713.509 43.112 712.911 43.112C712.293 43.112 711.738 43.2507 711.247 43.528C710.757 43.8053 710.367 44.2107 710.079 44.744C709.802 45.2667 709.663 45.8907 709.663 46.616C709.663 47.3307 709.802 47.96 710.079 48.504C710.367 49.0373 710.757 49.448 711.247 49.736C711.738 50.0133 712.293 50.152 712.911 50.152C713.509 50.152 714.053 50.008 714.543 49.72C715.045 49.432 715.439 49.0213 715.727 48.488C716.015 47.9547 716.159 47.336 716.159 46.632ZM723.612 42.104C724.658 42.104 725.511 42.4293 726.172 43.08C726.834 43.72 727.164 44.6533 727.164 45.88V51H726.06V46.008C726.06 45.0587 725.82 44.3333 725.34 43.832C724.871 43.3307 724.226 43.08 723.404 43.08C722.562 43.08 721.89 43.3467 721.388 43.88C720.887 44.4133 720.636 45.1973 720.636 46.232V51H719.516V42.264H720.636V43.752C720.914 43.2187 721.314 42.8133 721.836 42.536C722.359 42.248 722.951 42.104 723.612 42.104ZM739.721 42.104C740.745 42.104 741.577 42.4293 742.217 43.08C742.868 43.72 743.193 44.6533 743.193 45.88V51H742.089V46.008C742.089 45.0587 741.86 44.3333 741.401 43.832C740.943 43.3307 740.319 43.08 739.529 43.08C738.708 43.08 738.052 43.352 737.561 43.896C737.071 44.44 736.825 45.2293 736.825 46.264V51H735.721V46.008C735.721 45.0587 735.492 44.3333 735.033 43.832C734.575 43.3307 733.945 43.08 733.145 43.08C732.324 43.08 731.668 43.352 731.177 43.896C730.687 44.44 730.441 45.2293 730.441 46.264V51H729.321V42.264H730.441V43.768C730.719 43.224 731.113 42.8133 731.625 42.536C732.137 42.248 732.708 42.104 733.337 42.104C734.095 42.104 734.756 42.2853 735.321 42.648C735.897 43.0107 736.313 43.544 736.569 44.248C736.804 43.5547 737.204 43.0267 737.769 42.664C738.345 42.2907 738.996 42.104 739.721 42.104ZM752.929 42.264V51H751.809V49.464C751.553 50.008 751.158 50.424 750.625 50.712C750.091 51 749.494 51.144 748.833 51.144C747.787 51.144 746.934 50.824 746.273 50.184C745.611 49.5333 745.281 48.5947 745.281 47.368V42.264H746.385V47.24C746.385 48.1893 746.619 48.9147 747.089 49.416C747.569 49.9173 748.219 50.168 749.041 50.168C749.883 50.168 750.555 49.9013 751.057 49.368C751.558 48.8347 751.809 48.0507 751.809 47.016V42.264H752.929ZM757.87 39.672C758.552 39.672 759.155 39.8053 759.678 40.072C760.211 40.3387 760.622 40.7227 760.91 41.224C761.208 41.7147 761.358 42.2853 761.358 42.936C761.358 44.088 761 44.936 760.286 45.48C759.582 46.0133 758.616 46.28 757.39 46.28L757.342 48.04H756.382L756.318 45.48H756.734C757.832 45.48 758.696 45.3093 759.326 44.968C759.966 44.616 760.286 43.9387 760.286 42.936C760.286 42.232 760.062 41.672 759.614 41.256C759.176 40.84 758.595 40.632 757.87 40.632C757.144 40.632 756.568 40.8293 756.142 41.224C755.715 41.6187 755.502 42.1573 755.502 42.84H754.43C754.43 42.2 754.574 41.6453 754.862 41.176C755.16 40.696 755.566 40.328 756.078 40.072C756.6 39.8053 757.198 39.672 757.87 39.672ZM756.862 51.08C756.627 51.08 756.43 51 756.27 50.84C756.12 50.68 756.046 50.4827 756.046 50.248C756.046 50.0133 756.12 49.8213 756.27 49.672C756.43 49.512 756.627 49.432 756.862 49.432C757.086 49.432 757.272 49.512 757.422 49.672C757.582 49.8213 757.662 50.0133 757.662 50.248C757.662 50.4827 757.582 50.68 757.422 50.84C757.272 51 757.086 51.08 756.862 51.08Z" fill="black"/>
<path fill-rule="evenodd" clip-rule="evenodd" d="M548 136C555.956 136 563.587 132.839 569.213 127.213C574.839 121.587 578 113.956 578 106C578 98.0435 574.839 90.4129 569.213 84.7868C563.587 79.1607 555.956 76 548 76C540.044 76 532.413 79.1607 526.787 84.7868C521.161 90.4129 518 98.0435 518 106C518 113.956 521.161 121.587 526.787 127.213C532.413 132.839 540.044 136 548 136ZM536.75 102.25C537.745 102.25 538.698 101.855 539.402 101.152C540.105 100.448 540.5 99.4946 540.5 98.5C540.5 97.5054 540.105 96.5516 539.402 95.8484C538.698 95.1451 537.745 94.75 536.75 94.75C535.755 94.75 534.802 95.1451 534.098 95.8484C533.395 96.5516 533 97.5054 533 98.5C533 99.4946 533.395 100.448 534.098 101.152C534.802 101.855 535.755 102.25 536.75 102.25ZM563 98.5C563 99.4946 562.605 100.448 561.902 101.152C561.198 101.855 560.245 102.25 559.25 102.25C558.255 102.25 557.302 101.855 556.598 101.152C555.895 100.448 555.5 99.4946 555.5 98.5C555.5 97.5054 555.895 96.5516 556.598 95.8484C557.302 95.1451 558.255 94.75 559.25 94.75C560.245 94.75 561.198 95.1451 561.902 95.8484C562.605 96.5516 563 97.5054 563 98.5ZM561.26 119.256C561.608 118.908 561.884 118.494 562.073 118.039C562.261 117.584 562.358 117.096 562.358 116.604C562.357 116.111 562.26 115.623 562.072 115.168C561.883 114.713 561.607 114.3 561.258 113.952C560.91 113.604 560.496 113.328 560.041 113.139C559.586 112.951 559.098 112.854 558.606 112.854C558.113 112.854 557.625 112.952 557.17 113.14C556.715 113.329 556.302 113.605 555.954 113.954C553.844 116.063 550.983 117.248 548 117.248C545.017 117.248 542.156 116.063 540.046 113.954C539.343 113.25 538.389 112.855 537.394 112.854C536.4 112.854 535.446 113.249 534.742 113.952C534.038 114.655 533.643 115.609 533.642 116.604C533.642 117.598 534.037 118.553 534.74 119.256C536.481 120.998 538.548 122.379 540.824 123.322C543.099 124.265 545.537 124.75 548 124.75C550.463 124.75 552.901 124.265 555.176 123.322C557.452 122.379 559.519 120.998 561.26 119.256Z" fill="#00591E"/>
<path fill-rule="evenodd" clip-rule="evenodd" d="M660.714 136.848C668.67 136.848 676.301 133.687 681.927 128.061C687.553 122.435 690.714 114.805 690.714 106.848C690.714 98.8916 687.553 91.261 681.927 85.6349C676.301 80.0089 668.67 76.8481 660.714 76.8481C652.757 76.8481 645.127 80.0089 639.501 85.6349C633.875 91.261 630.714 98.8916 630.714 106.848C630.714 114.805 633.875 122.435 639.501 128.061C645.127 133.687 652.757 136.848 660.714 136.848ZM649.464 103.098C650.458 103.098 651.412 102.703 652.116 102C652.819 101.297 653.214 100.343 653.214 99.3481C653.214 98.3536 652.819 97.3998 652.116 96.6965C651.412 95.9932 650.458 95.5981 649.464 95.5981C648.469 95.5981 647.515 95.9932 646.812 96.6965C646.109 97.3998 645.714 98.3536 645.714 99.3481C645.714 100.343 646.109 101.297 646.812 102C647.515 102.703 648.469 103.098 649.464 103.098ZM675.714 99.3481C675.714 100.343 675.319 101.297 674.616 102C673.912 102.703 672.958 103.098 671.964 103.098C670.969 103.098 670.015 102.703 669.312 102C668.609 101.297 668.214 100.343 668.214 99.3481C668.214 98.3536 668.609 97.3998 669.312 96.6965C670.015 95.9932 670.969 95.5981 671.964 95.5981C672.958 95.5981 673.912 95.9932 674.616 96.6965C675.319 97.3998 675.714 98.3536 675.714 99.3481ZM647.454 121.394C647.802 121.743 648.216 122.02 648.671 122.208C649.126 122.397 649.614 122.494 650.107 122.494C650.6 122.494 651.088 122.397 651.543 122.208C651.998 122.02 652.412 121.743 652.76 121.394C654.87 119.285 657.731 118.101 660.714 118.101C663.697 118.101 666.558 119.285 668.668 121.394C669.371 122.098 670.326 122.493 671.321 122.493C672.316 122.493 673.27 122.098 673.974 121.394C674.678 120.691 675.073 119.736 675.073 118.741C675.073 117.746 674.678 116.792 673.974 116.088C672.233 114.347 670.166 112.965 667.89 112.022C665.615 111.08 663.177 110.595 660.714 110.595C658.251 110.595 655.813 111.08 653.537 112.022C651.262 112.965 649.195 114.347 647.454 116.088C647.105 116.436 646.829 116.85 646.64 117.305C646.451 117.76 646.354 118.248 646.354 118.741C646.354 119.234 646.451 119.722 646.64 120.177C646.829 120.633 647.105 121.046 647.454 121.394Z" fill="#960002"/>
</svg>
