<svg width="26" height="28" viewBox="0 0 26 28" fill="none" xmlns="http://www.w3.org/2000/svg">
<path d="M8.41267 0.666748C7.97064 0.666748 7.54672 0.842343 7.23416 1.1549C6.9216 1.46746 6.746 1.89139 6.746 2.33341C6.746 2.77544 6.9216 3.19937 7.23416 3.51193C7.54672 3.82449 7.97064 4.00008 8.41267 4.00008H11.746C12.188 4.00008 12.612 3.82449 12.9245 3.51193C13.2371 3.19937 13.4127 2.77544 13.4127 2.33341C13.4127 1.89139 13.2371 1.46746 12.9245 1.1549C12.612 0.842343 12.188 0.666748 11.746 0.666748H8.41267Z" fill="#FF0000"/>
<path d="M0.0793457 5.66683C0.0793457 4.78277 0.430535 3.93493 1.05566 3.30981C1.68078 2.68469 2.52862 2.3335 3.41268 2.3335C3.41268 3.65958 3.93946 4.93135 4.87715 5.86903C5.81483 6.80671 7.0866 7.3335 8.41268 7.3335H11.746C13.0721 7.3335 14.3439 6.80671 15.2815 5.86903C16.2192 4.93135 16.746 3.65958 16.746 2.3335C17.6301 2.3335 18.4779 2.68469 19.103 3.30981C19.7282 3.93493 20.0793 4.78277 20.0793 5.66683V15.6668H12.436L14.591 13.5118C14.8946 13.1975 15.0626 12.7765 15.0588 12.3395C15.055 11.9025 14.8797 11.4845 14.5707 11.1755C14.2617 10.8665 13.8437 10.6912 13.4067 10.6874C12.9697 10.6836 12.5487 10.8516 12.2343 11.1552L7.23435 16.1552C6.92189 16.4677 6.74637 16.8916 6.74637 17.3335C6.74637 17.7754 6.92189 18.1993 7.23435 18.5118L12.2343 23.5118C12.5487 23.8154 12.9697 23.9834 13.4067 23.9796C13.8437 23.9758 14.2617 23.8005 14.5707 23.4915C14.8797 23.1825 15.055 22.7645 15.0588 22.3275C15.0626 21.8905 14.8946 21.4695 14.591 21.1552L12.436 19.0002H20.0793V24.0002C20.0793 24.8842 19.7282 25.7321 19.103 26.3572C18.4779 26.9823 17.6301 27.3335 16.746 27.3335H3.41268C2.52862 27.3335 1.68078 26.9823 1.05566 26.3572C0.430535 25.7321 0.0793457 24.8842 0.0793457 24.0002V5.66683ZM20.0793 15.6668H23.4127C23.8547 15.6668 24.2786 15.8424 24.5912 16.155C24.9038 16.4675 25.0793 16.8915 25.0793 17.3335C25.0793 17.7755 24.9038 18.1994 24.5912 18.512C24.2786 18.8246 23.8547 19.0002 23.4127 19.0002H20.0793V15.6668Z" fill="#FF0000"/>
</svg>
