<svg width="44" height="17" viewBox="0 0 44 17" fill="none" xmlns="http://www.w3.org/2000/svg">
<path d="M1.688 10.816H5.592V12H0.232V0.848H1.688V10.816ZM6.59425 7.584C6.59425 6.688 6.77558 5.904 7.13825 5.232C7.50092 4.54933 7.99692 4.02133 8.62625 3.648C9.26625 3.27467 9.97558 3.088 10.7543 3.088C11.5223 3.088 12.1889 3.25333 12.7543 3.584C13.3196 3.91467 13.7409 4.33067 14.0183 4.832V3.232H15.4903V12H14.0183V10.368C13.7303 10.88 13.2983 11.3067 12.7223 11.648C12.1569 11.9787 11.4956 12.144 10.7383 12.144C9.95958 12.144 9.25558 11.952 8.62625 11.568C7.99692 11.184 7.50092 10.6453 7.13825 9.952C6.77558 9.25867 6.59425 8.46933 6.59425 7.584ZM14.0183 7.6C14.0183 6.93867 13.8849 6.36267 13.6183 5.872C13.3516 5.38133 12.9889 5.008 12.5303 4.752C12.0823 4.48533 11.5863 4.352 11.0423 4.352C10.4983 4.352 10.0023 4.48 9.55425 4.736C9.10625 4.992 8.74892 5.36533 8.48225 5.856C8.21558 6.34667 8.08225 6.92267 8.08225 7.584C8.08225 8.256 8.21558 8.84267 8.48225 9.344C8.74892 9.83467 9.10625 10.2133 9.55425 10.48C10.0023 10.736 10.4983 10.864 11.0423 10.864C11.5863 10.864 12.0823 10.736 12.5303 10.48C12.9889 10.2133 13.3516 9.83467 13.6183 9.344C13.8849 8.84267 14.0183 8.26133 14.0183 7.6ZM19.4068 4.848C19.6948 4.34667 20.1214 3.93067 20.6868 3.6C21.2628 3.25867 21.9294 3.088 22.6868 3.088C23.4654 3.088 24.1694 3.27467 24.7987 3.648C25.4387 4.02133 25.9401 4.54933 26.3028 5.232C26.6654 5.904 26.8468 6.688 26.8468 7.584C26.8468 8.46933 26.6654 9.25867 26.3028 9.952C25.9401 10.6453 25.4387 11.184 24.7987 11.568C24.1694 11.952 23.4654 12.144 22.6868 12.144C21.9401 12.144 21.2788 11.9787 20.7028 11.648C20.1374 11.3067 19.7054 10.8853 19.4068 10.384V16.16H17.9508V3.232H19.4068V4.848ZM25.3588 7.584C25.3588 6.92267 25.2254 6.34667 24.9588 5.856C24.6921 5.36533 24.3294 4.992 23.8708 4.736C23.4228 4.48 22.9268 4.352 22.3828 4.352C21.8494 4.352 21.3534 4.48533 20.8948 4.752C20.4468 5.008 20.0841 5.38667 19.8068 5.888C19.5401 6.37867 19.4068 6.94933 19.4068 7.6C19.4068 8.26133 19.5401 8.84267 19.8068 9.344C20.0841 9.83467 20.4468 10.2133 20.8948 10.48C21.3534 10.736 21.8494 10.864 22.3828 10.864C22.9268 10.864 23.4228 10.736 23.8708 10.48C24.3294 10.2133 24.6921 9.83467 24.9588 9.344C25.2254 8.84267 25.3588 8.256 25.3588 7.584ZM32.5873 12.144C31.7659 12.144 31.0193 11.9573 30.3473 11.584C29.6859 11.2107 29.1633 10.6827 28.7793 10C28.4059 9.30667 28.2193 8.50667 28.2193 7.6C28.2193 6.704 28.4113 5.91467 28.7953 5.232C29.1899 4.53867 29.7233 4.01067 30.3953 3.648C31.0673 3.27467 31.8193 3.088 32.6513 3.088C33.4833 3.088 34.2353 3.27467 34.9073 3.648C35.5793 4.01067 36.1073 4.53333 36.4913 5.216C36.8859 5.89867 37.0833 6.69333 37.0833 7.6C37.0833 8.50667 36.8806 9.30667 36.4753 10C36.0806 10.6827 35.5419 11.2107 34.8593 11.584C34.1766 11.9573 33.4193 12.144 32.5873 12.144ZM32.5873 10.864C33.1099 10.864 33.6006 10.7413 34.0593 10.496C34.5179 10.2507 34.8859 9.88267 35.1633 9.392C35.4513 8.90133 35.5953 8.304 35.5953 7.6C35.5953 6.896 35.4566 6.29867 35.1793 5.808C34.9019 5.31733 34.5393 4.95467 34.0913 4.72C33.6433 4.47467 33.1579 4.352 32.6353 4.352C32.1019 4.352 31.6113 4.47467 31.1633 4.72C30.7259 4.95467 30.3739 5.31733 30.1073 5.808C29.8406 6.29867 29.7073 6.896 29.7073 7.6C29.7073 8.31467 29.8353 8.91733 30.0913 9.408C30.3579 9.89867 30.7099 10.2667 31.1473 10.512C31.5846 10.7467 32.0646 10.864 32.5873 10.864ZM40.4536 4.656C40.7096 4.15467 41.0723 3.76533 41.5416 3.488C42.0216 3.21067 42.603 3.072 43.2856 3.072V4.576H42.9016C41.2696 4.576 40.4536 5.46133 40.4536 7.232V12H38.9976V3.232H40.4536V4.656Z" fill="#F5F5F5"/>
</svg>
