<svg width="34" height="34" viewBox="0 0 34 34" fill="none" xmlns="http://www.w3.org/2000/svg">
<path fill-rule="evenodd" clip-rule="evenodd" d="M20.1663 2.48584C19.3588 -0.829264 14.6412 -0.829264 13.8337 2.48584C13.7131 2.98399 13.4766 3.44663 13.1435 3.83613C12.8103 4.22562 12.3899 4.53096 11.9165 4.7273C11.4431 4.92363 10.93 5.00541 10.419 4.96598C9.90795 4.92656 9.41346 4.76703 8.97575 4.5004C6.06016 2.72385 2.7238 6.0602 4.50036 8.97579C5.64789 10.8586 4.62999 13.3152 2.48792 13.8358C-0.829307 14.6412 -0.829307 19.361 2.48792 20.1643C2.9862 20.285 3.44893 20.5217 3.83842 20.8551C4.22792 21.1885 4.53317 21.6091 4.72931 22.0828C4.92546 22.5565 5.00696 23.0698 4.96717 23.581C4.92738 24.0921 4.76744 24.5867 4.50036 25.0243C2.7238 27.9399 6.06016 31.2762 8.97575 29.4997C9.41338 29.2326 9.90791 29.0727 10.4191 29.0329C10.9302 28.9931 11.4435 29.0746 11.9172 29.2707C12.3909 29.4669 12.8116 29.7721 13.145 30.1616C13.4784 30.5511 13.7151 31.0138 13.8358 31.5121C14.6412 34.8293 19.3609 34.8293 20.1642 31.5121C20.2853 31.0141 20.5223 30.5517 20.8557 30.1625C21.1892 29.7732 21.6098 29.4682 22.0833 29.2721C22.5569 29.076 23.07 28.9944 23.581 29.034C24.092 29.0735 24.5865 29.2331 25.0243 29.4997C27.9398 31.2762 31.2762 27.9399 29.4996 25.0243C29.233 24.5866 29.0735 24.0921 29.0339 23.5811C28.9944 23.0701 29.076 22.5569 29.2721 22.0834C29.4681 21.6098 29.7732 21.1892 30.1624 20.8558C30.5516 20.5223 31.0141 20.2854 31.5121 20.1643C34.8293 19.3589 34.8293 14.6391 31.5121 13.8358C31.0138 13.7151 30.5511 13.4784 30.1616 13.145C29.7721 12.8116 29.4668 12.391 29.2707 11.9173C29.0745 11.4436 28.993 10.9303 29.0328 10.4191C29.0726 9.90795 29.2326 9.41343 29.4996 8.97579C31.2762 6.0602 27.9398 2.72385 25.0243 4.5004C24.5866 4.76748 24.0921 4.92743 23.5809 4.96721C23.0698 5.007 22.5565 4.9255 22.0828 4.72936C21.6091 4.53321 21.1884 4.22796 20.855 3.83847C20.5216 3.44897 20.2849 2.98625 20.1642 2.48796L20.1663 2.48584ZM17 23.3752C18.6908 23.3752 20.3124 22.7036 21.5079 21.508C22.7035 20.3124 23.3752 18.6908 23.3752 17C23.3752 15.3092 22.7035 13.6877 21.5079 12.4921C20.3124 11.2965 18.6908 10.6248 17 10.6248C15.3092 10.6248 13.6876 11.2965 12.4921 12.4921C11.2965 13.6877 10.6248 15.3092 10.6248 17C10.6248 18.6908 11.2965 20.3124 12.4921 21.508C13.6876 22.7036 15.3092 23.3752 17 23.3752Z" fill="#FFFCF5"/>
</svg>
