<svg width="61" height="61" viewBox="0 0 61 61" fill="none" xmlns="http://www.w3.org/2000/svg">
<path fill-rule="evenodd" clip-rule="evenodd" d="M60.5 4.24898C60.4997 3.61001 60.3361 2.98173 60.0247 2.42374C59.7134 1.86576 59.2646 1.39659 58.721 1.06075C58.1774 0.724901 57.557 0.533524 56.9187 0.504775C56.2804 0.476025 55.6453 0.610856 55.0737 0.896475L25.8612 15.499H11.75C8.76631 15.499 5.90483 16.6842 3.79505 18.794C1.68526 20.9038 0.5 23.7653 0.5 26.749C0.5 29.7327 1.68526 32.5941 3.79505 34.7039C5.90483 36.8137 8.76631 37.999 11.75 37.999H12.8L19.4412 57.934C19.6901 58.681 20.1677 59.3308 20.8064 59.7911C21.4452 60.2515 22.2126 60.4992 23 60.499H26.75C27.7446 60.499 28.6984 60.1039 29.4016 59.4006C30.1049 58.6974 30.5 57.7435 30.5 56.749V40.3165L55.0737 52.6015C55.6453 52.8871 56.2804 53.0219 56.9187 52.9932C57.557 52.9644 58.1774 52.773 58.721 52.4372C59.2646 52.1014 59.7134 51.6322 60.0247 51.0742C60.3361 50.5162 60.4997 49.8879 60.5 49.249V4.24898Z" fill="#B0323A"/>
</svg>
